<svg xmlns="http://www.w3.org/2000/svg" width="304" height="53" viewBox="0 0 304 53">
  <g fill="none">
    <path fill="#AB3225" d="M5.90959186 21.1582495C5.90959186 21.5099995 5.97952786 21.6869995 6.04946385 21.7574995 6.29423985 21.9689995 6.39914385 22.0394995 7.41321582 22.1452495 7.69295981 22.1804995 9.61619977 22.4977495 9.61619977 23.0969994 9.61619977 23.3789994 9.44135977 23.4494994 9.33645577 23.4494994 9.02174378 23.4494994 7.51811982 23.2379994 5.42003987 23.2379994 4.61577589 23.2379994 1.08400797 23.5552494.349679992 23.5552494.279743993 23.5552494.139871997 23.5199994 0 23.5199994L.0349679992 23.0617494C.314711992 22.9207494 1.74839996 22.6739995 2.02814395 22.6027495 2.41279194 22.4977495 3.04221593 22.2157495 3.07718393 22.0394995 3.21705592 21.2992495 3.21705592 20.1007495 3.21705592 19.3252495 3.21705592 17.2454996 2.97227993 7.90424981 2.97227993 6.00074986 2.97227993 4.90799988 2.97227993 3.32099992 2.93731193 3.14549992 2.79743993 2.61674994 2.58763194 2.58149994.874199979 2.22824995.559487986 2.15849995.0699359983 2.01749995.0699359983 1.70024996.0699359983 1.41824997.279743993 1.34774997.524519987 1.34774997L5.80468786 1.34774997C8.1125758 1.34774997 10.1756878 1.27724997 11.8541517 1.17149997 13.5675837 1.10099997 14.8613996 1.03049998 15.5957276 1.03049998 17.3441276 1.03049998 17.7637436 1.03049998 17.7637436 1.59449996L17.7637436 2.29949994C17.7637436 2.86349993 17.9385836 5.36624987 17.8686476 5.85974986 17.7637436 5.89499986 17.5889036 5.96549986 17.3790956 5.96549986 17.2042556 5.96549986 17.0294156 5.89499986 16.9594796 5.15474988 16.9245116 4.76699988 16.5398636 3.32099992 16.3300556 3.00449993 15.7705676 2.12324995 13.2878397 2.08799995 12.2737677 2.08799995 11.7142797 2.08799995 9.37142377 2.19374995 8.91683978 2.19374995 6.15436785 2.19374995 5.90959186 2.19374995 5.90959186 3.18074992L5.90959186 10.0544998C5.90959186 10.7587497 5.90959186 11.0062497 5.97952786 11.3587497 6.64391984 11.4292497 11.9240877 11.3587497 13.0080957 11.1824997 14.3019117 10.9709997 14.4767517 10.1954998 14.8264316 7.72724981 15.0362396 7.58699982 15.1761116 7.62224982 15.4208876 7.69274981 15.5257916 8.4329998 15.6656636 14.0377497 15.7006316 15.2362496 15.3509516 15.3772496 15.2810156 15.3772496 15.0712076 15.3419996 14.8264316 13.7557497 14.3019117 12.3104997 13.7424237 12.2047497 13.1479677 12.1334997 12.4486077 12.1334997 9.86097576 12.1334997L6.71385584 12.1694997C6.11939985 12.1694997 5.90959186 12.2399997 5.90959186 12.6277497L5.90959186 21.1582495M30.904684 16.7580141C30.904684 15.0646485 30.2267797 9.98455182 26.0915634 9.98455182 21.1760359 9.98455182 21.1760359 15.7492006 21.1760359 17.0102175 21.1760359 21.8733733 23.6172126 23.4954474 25.9213661 23.4954474 28.8702499 23.4954474 30.904684 20.9013554 30.904684 16.7580141zM26.2264231 9.29999978C31.0063696 9.29999978 33.4799992 13.371283 33.4799992 16.9741885 33.4799992 19.8917753 31.1073341 24.1799994 25.7857853 24.1799994 21.6844642 24.1799994 18.5999996 20.8292973 18.5999996 16.649927 18.5999996 15.2447938 19.4819963 9.29999978 26.2264231 9.29999978zM40.0151342 3.52412751C40.0151342 2.74157727 39.8475666 2.56355277 39.4454045 2.31431847 39.2108099 2.17189888 38.1048639 1.67343028 37.8702694 1.56585803L37.8702694 1.17496169 41.3221612 0 42.0594584 0C42.159999 3.16883606 41.9589179 16.9123273 41.9589179 19.7963242 41.9589179 22.0750378 41.9589179 22.2530622 43.2659449 22.3954818 43.8356746 22.4666916 44.6399989 22.5735063 44.6399989 22.8939504 44.6399989 23.2143945 44.5059449 23.2499994 44.3048638 23.2499994 44.1037827 23.2499994 43.5675665 23.2143945 42.9308098 23.1787896 42.3275665 23.1787896 41.6572963 23.1431847 41.1210801 23.1431847 40.6518909 23.1431847 39.9481071 23.1787896 39.2778369 23.1787896 38.6075666 23.2143945 38.0043234 23.2499994 37.6691883 23.2499994 37.4345937 23.2499994 37.1999991 23.1787896 37.1999991 22.8939504 37.1999991 22.6091112 37.2670261 22.5735063 37.8702694 22.4666916 39.612972 22.1818525 39.8140531 22.14549 39.8810801 21.5409643 39.9816207 20.8644712 39.9816207 18.7281772 39.9816207 17.9448694L40.0151342 3.52412751M52.0718229 19.3702883C54.6472075 19.3702883 55.6773613 17.1442245 55.6773613 14.741489 55.6773613 12.4447565 54.6472075 9.90068365 52.0350317 9.90068365 48.539867 9.90068365 48.539867 13.3634495 48.539867 14.741489 48.539867 18.3455923 50.6369658 19.3702883 52.0718229 19.3702883zM52.1086141 31.913981C55.6037789 31.913981 59.0621524 30.3239354 59.0621524 27.9211999 59.0621524 27.3911847 58.804614 25.9778109 56.8546799 25.4124614 55.6037789 25.0237836 51.4831636 24.8824462 51.3359988 24.8824462 49.1653175 24.8824462 46.7370978 26.3304026 46.7370978 28.4512151 46.7370978 29.2285707 47.1050099 29.970592 47.9512076 30.7126132 49.4964384 31.8425605 51.6303284 31.913981 52.1086141 31.913981zM45.8173176 21.8436925C45.8173176 21.278343 46.1116472 20.8189965 47.5097131 20.3949843 48.7974054 19.9702204 49.1285263 19.8296348 49.5332296 19.6176287 49.3124823 19.4762913 48.2823285 18.8748557 48.0983725 18.6989357 47.1050099 17.8155771 46.1484384 16.7202124 46.1484384 14.7768234 46.1484384 11.9147414 48.3927021 9.29999978 52.1821965 9.29999978 53.1387679 9.29999978 54.5368338 9.51200585 55.4934053 10.1126897 56.8914712 10.960714 57.038636 11.0667171 57.5905041 11.0667171 58.0687898 11.0667171 60.055515 10.7487079 60.4602183 10.7487079 60.9017128 10.7487079 60.9752952 10.8193766 61.1592513 10.8900453 61.3064161 11.136634 61.3799985 11.3493918 61.3799985 12.0560787 61.3799985 12.4094222 61.1960425 12.6214283 60.7913392 12.6214283 60.2394711 12.6214283 57.8480426 11.98541 57.3697569 12.0560787 57.6640865 12.6214283 58.1423722 13.5401213 58.1423722 14.741489 58.1423722 17.2502275 55.7141525 19.9702204 52.255779 19.9702204 48.3191197 19.9702204 47.9144164 21.490349 47.9144164 21.490349 47.9144164 23.0089741 54.4264602 23.221732 55.6773613 23.2570663 57.2593832 23.327735 60.5705919 23.9284189 60.5705919 27.2851817 60.5705919 30.076595 57.4065481 32.5499992 51.9614493 32.5499992 46.2956033 32.5499992 44.6399989 30.1472637 44.6399989 28.8398929 44.6399989 27.6385252 45.8909 26.5431605 46.8474714 25.8718079 47.2153835 25.6244675 48.9445702 24.7411088 49.2756911 24.5644371 47.3257571 23.7164128 45.8173176 23.0450602 45.8173176 21.8436925zM72.8600166 13.5153992C73.2639105 13.4793701 73.5209339 13.0830505 73.5209339 12.8308471 73.5209339 12.6146728 73.3740634 10.128668 70.363218 10.128668 67.1320669 10.128668 66.0305381 12.9749634 66.0305381 13.8036316 67.5726784 13.8396607 68.1234428 13.8036316 72.8600166 13.5153992zM68.8577953 14.5242127C66.8383259 14.5594752 66.6180201 14.5242127 65.8102323 14.5962708 65.7000794 14.9205323 65.6266442 15.1367067 65.6266442 15.3168519 65.6266442 16.5418398 65.6266442 17.0102175 65.8836676 17.9109439 66.3609967 19.5322513 67.6461136 22.3785467 71.5014644 22.3785467 73.4474986 22.3785467 74.6591803 21.4057622 76.164603 20.1800078 76.2747558 20.8292973 76.2747558 20.8653264 76.2380382 21.1535588 74.9896389 22.6667791 72.5662756 24.1799994 70.2163475 24.1799994L69.7023007 24.1799994C67.2055021 24.1799994 63.2399985 22.4506048 63.2399985 17.0462466 63.2399985 14.9565614 64.5985506 9.29999978 70.4733709 9.29999978 74.4388745 9.29999978 76.0911677 12.3984985 76.0544501 14.4521546L68.8577953 14.5242127zM83.3682782 22.0743391C83.3682782 22.7762259 83.4917909 22.8464145 83.9073228 23.0920749 87.7220998 23.3369886 88.3431921 23.407924 88.3431921 23.7939617 88.3431921 23.8641504 88.3026093 23.934339 88.1773322 24.0747164L85.0683419 24.0396221 83.8658578 24.0747164 81.7511445 24.0396221C81.0453578 24.0396221 78.0607624 24.1449051 77.2729281 24.1799994 77.2314631 24.1098107 77.1899981 24.0045277 77.1899981 23.934339 77.1899981 23.829056 77.314393 23.6177433 77.355858 23.5833957 77.8110904 23.4781126 79.9258037 23.1973579 80.1754758 23.1271693 80.6315904 23.0218862 80.6315904 22.8464145 80.6315904 21.547924 80.6315904 20.3898108 80.6315904 14.5290563 80.3413356 13.8973582 80.1754758 13.5815091 79.8022911 13.4411318 79.3876414 13.4060374 78.1851573 13.2305657 78.0607624 13.2305657 77.6452305 13.0901884L77.7290427 12.5988676C79.843756 11.8618865 81.12917 11.4056601 82.2901891 9.29999978L82.9942113 9.29999978C83.0780235 9.89585685 83.0780235 10.1766116 83.0780235 12.5988676L83.1194884 13.0901884 83.1194884 13.7218865 83.2024184 13.7218865C84.1975776 12.1075469 86.4366858 10.0018866 88.1773322 10.0018866 89.6709532 10.0018866 90.2099978 11.0898111 90.2099978 11.7566035 90.2099978 12.8796223 88.9660488 13.0901884 88.5513991 13.0901884 88.1367495 13.0901884 86.3537559 12.5286789 85.9805712 12.5286789 85.2342018 12.5286789 84.7366222 12.949811 84.3219725 13.5113204 83.8658578 14.1079242 83.2024184 15.020377 83.2024184 15.8275468 83.2024184 16.4935925 83.325931 19.5117057 83.325931 20.1441505L83.3682782 22.0743391"/>
    <path fill="#FFFFFF" d="M92.5772705 23.3797249C92.1039903 23.1725861 92.0699978 23.0533475 92.0699978 22.253073 92.0699978 20.7702339 92.2059678 19.5831983 92.2399603 19.1093013 92.2730812 18.7829238 92.3410662 18.6346399 92.5101571 18.6346399 92.7132405 18.6346399 92.747233 18.7233045 92.747233 18.9610174 92.747233 19.2285399 92.747233 19.6428176 92.8483389 20.0578597 93.3556116 22.253073 95.5869143 23.0823928 97.853081 23.0823928 101.099801 23.0823928 102.688732 21.0369921 102.688732 19.1383466 102.688732 17.0929459 101.708179 15.9066746 98.7996415 13.8008903L97.2778233 12.7032836C93.6937934 10.1236022 92.8814598 8.28457604 92.8814598 6.26822064 92.8814598 3.09540363 95.5869143.929999978 99.8821719.929999978 101.200907.929999978 102.18146 1.04847423 103.026914 1.22733214 103.669285 1.3458064 103.940354 1.3748517 104.21055 1.3748517 104.481619 1.3748517 104.548732 1.434471 104.548732 1.58351926 104.548732 1.73103882 104.413634 2.70940686 104.413634 4.72652661 104.413634 5.20118799 104.345649 5.40832685 104.176558 5.40832685 103.973475 5.40832685 103.940354 5.26004294 103.906361 5.02309443 103.872369 4.66690731 103.669285 3.86663282 103.466202 3.54025536 103.26399 3.21387789 102.35055 1.96875168 99.2398008 1.96875168 96.9065206 1.96875168 95.0796416 3.24292319 95.0796416 5.40832685 95.0796416 7.09830478 96.0270736 8.10724683 99.2058083 10.3903604L100.152369 11.0431153C104.142565 13.8008903 105.089997 15.6391521 105.089997 18.012459 105.089997 19.2285399 104.548732 21.4818438 102.215452 22.9348732 100.760747 23.8245766 98.9356115 24.1799994 97.109604 24.1799994 95.5198009 24.1799994 93.9639902 23.9728606 92.5772705 23.3797249M128.26833 15.2615942C128.26833 18.2143148 128.26833 20.6430761 128.415101 21.9351391 128.504837 22.8269003 128.681268 23.5038462 129.56646 23.6267111 129.979398 23.6885399 130.628083 23.749576 130.89425 23.749576 131.07144 23.749576 131.129997 23.8415265 131.129997 23.9342696 131.129997 24.0880489 130.981704 24.1799994 130.658502 24.1799994 129.034888 24.1799994 127.176288 24.0880489 127.028756 24.0880489 126.881224 24.0880489 125.022623 24.1799994 124.13743 24.1799994 123.812707 24.1799994 123.665175 24.1189633 123.665175 23.9342696 123.665175 23.8415265 123.723732 23.749576 123.901683 23.749576 124.166328 23.749576 124.520709 23.6885399 124.786876 23.6267111 125.376244 23.5038462 125.523776 22.8269003 125.64241 21.9351391 125.789182 20.6430761 125.789182 18.2143148 125.789182 15.2615942L125.789182 12.0322294C125.789182 11.9093645 125.700966 11.8475358 125.612751 11.8475358L113.102179 11.8475358C113.013964 11.8475358 112.924988 11.8784502 112.924988 12.0322294L112.924988 15.2615942C112.924988 18.2143148 112.924988 20.6430761 113.073281 21.9351391 113.161496 22.8269003 113.338686 23.5038462 114.223119 23.6267111 114.636817 23.6885399 115.285502 23.749576 115.550908 23.749576 115.728098 23.749576 115.787416 23.8415265 115.787416 23.9342696 115.787416 24.0880489 115.639883 24.1799994 115.315161 24.1799994 113.692307 24.1799994 111.833706 24.0880489 111.686174 24.0880489 111.538642 24.0880489 109.680042 24.1799994 108.794849 24.1799994 108.470126 24.1799994 108.322594 24.1189633 108.322594 23.9342696 108.322594 23.8415265 108.381911 23.749576 108.558341 23.749576 108.823747 23.749576 109.178128 23.6885399 109.443534 23.6267111 110.033662 23.5038462 110.181194 22.8269003 110.299068 21.9351391 110.4466 20.6430761 110.4466 18.2143148 110.4466 15.2615942L110.4466 9.8484052C110.4466 5.05033331 110.4466 4.18948645 110.388044 3.2057747 110.328727 2.16023417 110.092979 1.66798196 109.118811 1.4523739 108.883064 1.3913378 108.381911 1.36042341 108.115745 1.36042341 107.997871 1.36042341 107.879997 1.29859463 107.879997 1.17652242 107.879997.991036081 108.02753.929999978 108.352252.929999978 109.680042.929999978 111.538642 1.02195047 111.686174 1.02195047 111.833706 1.02195047 113.692307.929999978 114.5775.929999978 114.902223.929999978 115.049755.991036081 115.049755 1.17652242 115.049755 1.29859463 114.931121 1.36042341 114.814008 1.36042341 114.607158 1.36042341 114.429968 1.3913378 114.075586 1.4523739 113.279369 1.60694585 113.042862 2.12931978 112.984305 3.2057747 112.924988 4.18948645 112.924988 5.05033331 112.924988 9.8484052L112.924988 10.4944367C112.924988 10.648216 113.013964 10.6791304 113.102179 10.6791304L125.612751 10.6791304C125.700966 10.6791304 125.789182 10.648216 125.789182 10.4944367L125.789182 9.8484052C125.789182 5.05033331 125.789182 4.18948645 125.729864 3.2057747 125.672068 2.16023417 125.435561 1.66798196 124.461392 1.4523739 124.225645 1.3913378 123.723732 1.36042341 123.459086 1.36042341 123.340452 1.36042341 123.222579 1.29859463 123.222579 1.17652242 123.222579.991036081 123.370111.929999978 123.694834.929999978 125.022623.929999978 126.881224 1.02195047 127.028756 1.02195047 127.176288 1.02195047 129.034888.929999978 129.920081.929999978 130.245565.929999978 130.392336.991036081 130.392336 1.17652242 130.392336 1.29859463 130.274463 1.36042341 130.155828 1.36042341 129.94974 1.36042341 129.772549 1.3913378 129.418928 1.4523739 128.621951 1.60694585 128.385443 2.12931978 128.326886 3.2057747 128.26833 4.18948645 128.26833 5.05033331 128.26833 9.8484052L128.26833 15.2615942M145.881026 14.1858072C146.034375 14.1858072 146.034375 14.095531 146.003705 13.9749034L143.105024 5.82203333C142.952462 5.3690961 142.799114 5.3690961 142.647338 5.82203333L139.962559 13.9749034C139.901219 14.1251043 139.962559 14.1858072 140.053781 14.1858072L145.881026 14.1858072zM142.708677 2.10825936C143.074355 1.11210876 143.196247.929999978 143.380265.929999978 143.562711.929999978 143.683817 1.08097905 144.051067 2.01798321 144.508753 3.16433465 149.298733 15.6356733 151.159362 20.2249702 152.258753 22.9122421 153.143456 23.3947526 153.783588 23.5768614 154.241275 23.7270622 154.698961 23.7574137 155.004086 23.7574137 155.187317 23.7574137 155.309996 23.7877651 155.309996 23.9387442 155.309996 24.1200747 155.034755 24.1799994 154.698961 24.1799994 154.241275 24.1799994 152.014182 24.1799994 149.908982 24.1200747 149.329403 24.0897233 148.993609 24.0897233 148.993609 23.9083927 148.993609 23.7877651 149.084832 23.7270622 149.20751 23.697489 149.389956 23.636786 149.573974 23.3644011 149.389956 22.8818907L146.552614 15.4535645C146.492061 15.3329369 146.429936 15.2730122 146.27816 15.2730122L139.717987 15.2730122C139.565425 15.2730122 139.474203 15.3632883 139.412863 15.5142674L137.582904 20.8584597C137.308449 21.6133551 137.155101 22.3386773 137.155101 22.8818907 137.155101 23.4850287 137.796019 23.7574137 138.314258 23.7574137L138.620169 23.7574137C138.833284 23.7574137 138.925293 23.8173383 138.925293 23.9387442 138.925293 24.1200747 138.741275 24.1799994 138.467607 24.1799994 137.735466 24.1799994 136.42296 24.0897233 136.087166 24.0897233 135.751372 24.0897233 134.073974 24.1799994 132.638789 24.1799994 132.242442 24.1799994 132.059997 24.1200747 132.059997 23.9387442 132.059997 23.8173383 132.181103 23.7574137 132.335238 23.7574137 132.548353 23.7574137 132.97537 23.7270622 133.219941 23.697489 134.622884 23.5161584 135.233132 22.3682505 135.782041 20.8584597L142.708677 2.10825936zM159.685152 9.8484052C159.685152 5.05033331 159.685152 4.18948645 159.627041 3.2057747 159.56893 2.16023417 159.337977 1.66798196 158.384363 1.4523739 158.152665 1.3913378 157.661703 1.36042341 157.400949 1.36042341 157.285473 1.36042341 157.169996 1.29859463 157.169996 1.17652242 157.169996.991036081 157.314528.929999978 157.632648.929999978 158.933436.929999978 160.638766 1.02195047 160.811608 1.02195047 161.072362 1.02195047 162.748636.929999978 163.615828.929999978 163.933947.929999978 164.07848.991036081 164.07848 1.17652242 164.07848 1.29859463 163.963003 1.36042341 163.847526 1.36042341 163.644883 1.36042341 163.471296 1.3913378 163.124866 1.4523739 162.344095 1.60694585 162.112397 2.12931978 162.055031 3.2057747 161.99692 4.18948645 161.99692 5.05033331 161.99692 9.8484052L161.99692 11.6937565 162.112397 11.6937565C162.604849 11.1095538 167.836313 5.45063503 168.877093 4.25131523 169.685429 3.35955397 170.437145 2.55974321 170.437145 2.03736929 170.437145 1.66798196 170.293358 1.48328829 170.06166 1.3913378 169.917128 1.32950902 169.801651 1.26847292 169.801651 1.14560803 169.801651.991036081 169.946183.929999978 170.148826.929999978 170.726954.929999978 171.622457 1.02195047 172.316807 1.02195047 172.460594 1.02195047 174.369311.929999978 175.091226.929999978 175.409346.929999978 175.524822.991036081 175.524822 1.14560803 175.524822 1.29859463 175.466712 1.36042341 175.235758 1.36042341 174.802162 1.36042341 174.194979 1.51420268 173.61685 1.79084684 172.432283 2.34413516 171.796044 3.11303153 170.495256 4.43600889 169.772596 5.17399087 164.743774 10.4016935 164.135845 11.1713826 164.887561 12.0631438 170.899797 18.6756526 172.085109 19.8432653 174.513098 22.2426976 175.00406 22.7349498 176.39127 23.3492743 177.142986 23.6885399 177.981867 23.749576 178.18451 23.749576 178.386408 23.749576 178.559996 23.8106121 178.559996 23.9342696 178.559996 24.0880489 178.415464 24.1799994 177.923757 24.1799994L176.450126 24.1799994C175.641044 24.1799994 175.091226 24.1799994 174.455732 24.1189633 172.923245 23.965184 172.200585 23.2882382 170.957907 22.2426976 169.657119 21.1044139 163.529407 14.0614817 162.142197 12.2470448L161.99692 12.2470448 161.99692 15.2615942C161.99692 18.2143148 161.99692 20.6430761 162.142197 21.9351391 162.228618 22.8269003 162.401461 23.5038462 163.268653 23.6267111 163.673939 23.6885399 164.135845 23.749576 164.396599 23.749576 164.569442 23.749576 164.627552 23.8415265 164.627552 23.9342696 164.627552 24.0880489 164.48302 24.1799994 164.164901 24.1799994 162.748636 24.1799994 161.072362 24.0880489 160.840663 24.0880489 160.60971 24.0880489 158.933436 24.1799994 158.066244 24.1799994 157.748124 24.1799994 157.603592 24.1189633 157.603592 23.9342696 157.603592 23.8415265 157.661703 23.749576 157.834546 23.749576 158.095299 23.749576 158.441729 23.6885399 158.701738 23.6267111 159.280611 23.5038462 159.424398 22.8269003 159.539875 21.9351391 159.685152 20.6430761 159.685152 18.2143148 159.685152 15.2615942L159.685152 9.8484052M181.117185 9.96294159C181.117185 5.2335587 181.117185 4.38503568 181.058103 3.41540671 180.999778 2.3848341 180.764208 1.89962895 179.794657 1.68710753 179.559087 1.62694522 179.05992 1.5964734 178.795566 1.5964734 178.677402 1.5964734 178.559996 1.53552975 178.559996 1.41520513 178.559996 1.2323742 178.706943 1.17221189 179.030379 1.17221189 180.352906 1.17221189 182.204899 1.26284602 182.351089 1.26284602 182.557118 1.26284602 188.405476 1.26284602 189.081889 1.2323742 189.63938 1.20190238 190.109763 1.14174007 190.345334 1.08157775 190.492281 1.05110593 190.60893.929999978 190.756635.929999978 190.844501.929999978 190.874042 1.05110593 190.874042 1.20190238 190.874042 1.41520513 190.727094 1.77774166 190.638471 2.62704601 190.60893 2.93020156 190.550606 4.26392973 190.492281 4.62802892 190.46274 4.77882537 190.403658 4.9616563 190.286252 4.9616563 190.109763 4.9616563 190.051439 4.80929719 190.051439 4.56708528 190.051439 4.35456386 190.021898 3.83966822 189.87495 3.47556903 189.668921 2.99036388 189.375026 2.62704601 187.788145 2.44499641 187.288978 2.3848341 184.085675 2.35436228 183.761481 2.35436228 183.644832 2.35436228 183.58575 2.44499641 183.58575 2.6567365L183.58575 11.023986C183.58575 11.2365074 183.615291 11.3271416 183.761481 11.3271416 184.143999 11.3271416 187.759361 11.3271416 188.434259 11.2669793 189.140213 11.2060356 189.551514 11.1458733 189.815868 10.8419364 190.021898 10.5997245 190.139304 10.4481467 190.257468 10.4481467 190.345334 10.4481467 190.403658 10.5083091 190.403658 10.69114 190.403658 10.8724082 190.257468 11.3880852 190.168845 12.3889673 190.109763 12.9944971 190.051439 14.1157039 190.051439 14.3282253 190.051439 14.5704372 190.051439 14.9040646 189.845409 14.9040646 189.698462 14.9040646 189.63938 14.7829586 189.63938 14.6321622 189.63938 14.3282253 189.63938 14.0250697 189.521973 13.63128 189.405324 13.2062372 189.140213 12.6913416 187.994174 12.5702356 187.200355 12.4796015 184.291704 12.4186578 183.791022 12.4186578 183.644832 12.4186578 183.58575 12.5100733 183.58575 12.6303979L183.58575 15.2986356C183.58575 16.3284269 183.556209 19.8451875 183.58575 20.4819705 183.673616 22.5743688 184.114458 22.9681585 186.995083 22.9681585 187.759361 22.9681585 189.052348 22.9681585 189.815868 22.6345312 190.580147 22.3009038 190.932366 21.695374 191.139153 20.45228 191.197477 20.1186526 191.256559 19.9975466 191.402749 19.9975466 191.579995 19.9975466 191.579995 20.2397586 191.579995 20.45228 191.579995 20.6937106 191.344425 22.7556371 191.197477 23.3916387 190.991448 24.1799994 190.756635 24.1799994 189.610596 24.1799994 185.173389 24.1799994 183.20399 23.9987311 182.351089 23.9987311 182.204899 23.9987311 180.352906 24.0893653 179.471221 24.0893653 179.148543 24.0893653 179.000838 24.029203 179.000838 23.8471534 179.000838 23.7557379 179.05992 23.6651038 179.236408 23.6651038 179.500762 23.6651038 179.852982 23.6049415 180.118093 23.5439978 180.705883 23.4228919 180.852831 22.7556371 180.970237 21.8766423 181.117185 20.6030764 181.117185 18.2090852 181.117185 15.2986356L181.117185 9.96294159M197.667302 23.3797249C197.19399 23.1725861 197.159995 23.0533475 197.159995 22.253073 197.159995 20.7702339 197.295103 19.5831983 197.329097 19.1093013 197.363092 18.7829238 197.431082 18.6346399 197.600184 18.6346399 197.802409 18.6346399 197.836404 18.7233045 197.836404 18.9610174 197.836404 19.2285399 197.836404 19.6428176 197.938388 20.0578597 198.445695 22.253073 200.677147 23.0823928 202.943466 23.0823928 206.189531 23.0823928 207.779441 21.0369921 207.779441 19.1383466 207.779441 17.0929459 206.798822 15.9066746 203.890089 13.8008903L202.369041 12.7032836C198.783028 10.1236022 197.972383 8.28457604 197.972383 6.26822064 197.972383 3.09540363 200.677147.929999978 204.972692.929999978 206.291515.929999978 207.272134 1.04847423 208.117645 1.22733214 208.760059 1.3458064 209.030274 1.3748517 209.301361 1.3748517 209.571576 1.3748517 209.638693 1.434471 209.638693 1.58351926 209.638693 1.73103882 209.503586 2.70940686 209.503586 4.72652661 209.503586 5.20118799 209.436468 5.40832685 209.267366 5.40832685 209.064269 5.40832685 209.030274 5.26004294 208.997151 5.02309443 208.963156 4.66690731 208.760059 3.86663282 208.556962 3.54025536 208.354737 3.21387789 207.441236 1.96875168 204.330278 1.96875168 201.996842 1.96875168 200.169841 3.24292319 200.169841 5.40832685 200.169841 7.09830478 201.117336 8.10724683 204.296283 10.3903604L205.242907 11.0431153C209.234243 13.8008903 210.179995 15.6391521 210.179995 18.012459 210.179995 19.2285399 209.638693 21.4818438 207.306129 22.9348732 205.852198 23.8245766 204.025197 24.1799994 202.199067 24.1799994 200.610029 24.1799994 199.054114 23.9728606 197.667302 23.3797249M214.676858 9.8484052C214.676858 5.05033331 214.676858 4.18948645 214.615935 3.2057747 214.555793 2.16023417 214.312883 1.66798196 213.313125 1.4523739 213.070996 1.3913378 212.555495 1.36042341 212.282905 1.36042341 212.161059 1.36042341 212.039995 1.29859463 212.039995 1.17652242 212.039995.991036081 212.192302.929999978 212.525034.929999978 213.888767.929999978 215.707859 1.02195047 215.949988 1.02195047 216.617014 1.02195047 218.374402.929999978 219.767816.929999978 223.555963.929999978 224.918915 2.22127027 225.404736 2.6826081 226.070981 3.32863958 226.919995 4.71265305 226.919995 6.34239629 226.919995 10.7100447 223.768412 13.6627653 219.464764 13.6627653 219.313238 13.6627653 218.979725 13.6627653 218.82898 13.6310583 218.676673 13.6310583 218.495467 13.5700222 218.495467 13.4162429 218.495467 13.1697205 218.676673 13.1388061 219.313238 13.1388061 222.252372 13.1388061 224.556503 10.9557745 224.556503 8.1259188 224.556503 7.11129266 224.464338 5.05033331 222.859257 3.39046836 221.252613 1.72981074 219.404622 1.85267562 218.707134 1.85267562 218.191634 1.85267562 217.676915 1.91371173 217.403543 2.03736929 217.222337 2.09840539 217.162195 2.31401345 217.162195 2.62157199L217.162195 15.2615942C217.162195 18.2143148 217.162195 20.6430761 217.31294 21.9351391 217.403543 22.8269003 217.586311 23.5038462 218.495467 23.6267111 218.919583 23.6885399 219.585829 23.749576 219.8592 23.749576 220.040406 23.749576 220.101329 23.8415265 220.101329 23.9342696 220.101329 24.0880489 219.949803 24.1799994 219.61629 24.1799994 217.950286 24.1799994 216.040591 24.0880489 215.889065 24.0880489 215.798462 24.0880489 213.888767 24.1799994 212.979612 24.1799994 212.64688 24.1799994 212.494573 24.1189633 212.494573 23.9342696 212.494573 23.8415265 212.555495 23.749576 212.737483 23.749576 213.010073 23.749576 213.373267 23.6885399 213.646638 23.6267111 214.252742 23.5038462 214.404268 22.8269003 214.525332 21.9351391 214.676858 20.6430761 214.676858 18.2143148 214.676858 15.2615942L214.676858 9.8484052M232.267183 9.96294159C232.267183 5.2335587 232.267183 4.38503568 232.208101 3.41540671 232.149777 2.3848341 231.914206 1.89962895 230.944656 1.68710753 230.709843 1.62694522 230.209919 1.5964734 229.945565 1.5964734 229.828158 1.5964734 229.709994 1.53552975 229.709994 1.41520513 229.709994 1.2323742 229.857699 1.17221189 230.180378 1.17221189 231.502905 1.17221189 233.354897 1.26284602 233.501088 1.26284602 233.707874 1.26284602 239.555474 1.26284602 240.231887 1.2323742 240.789379 1.20190238 241.259762 1.14174007 241.495332 1.08157775 241.64228 1.05110593 241.758929.929999978 241.906634.929999978 241.994499.929999978 242.02404 1.05110593 242.02404 1.20190238 242.02404 1.41520513 241.877093 1.77774166 241.789227 2.62704601 241.758929 2.93020156 241.700604 4.26392973 241.64228 4.62802892 241.612739 4.77882537 241.553657 4.9616563 241.43625 4.9616563 241.259762 4.9616563 241.201438 4.80929719 241.201438 4.56708528 241.201438 4.35456386 241.171897 3.83966822 241.024949 3.47556903 240.81892 2.99036388 240.525782 2.62704601 238.938144 2.44499641 238.438977 2.3848341 235.235674 2.35436228 234.91148 2.35436228 234.794831 2.35436228 234.735749 2.44499641 234.735749 2.6567365L234.735749 11.023986C234.735749 11.2365074 234.76529 11.3271416 234.91148 11.3271416 235.293998 11.3271416 238.90936 11.3271416 239.584258 11.2669793 240.290212 11.2060356 240.701513 11.1458733 240.966625 10.8419364 241.171897 10.5997245 241.289303 10.4481467 241.407467 10.4481467 241.495332 10.4481467 241.553657 10.5083091 241.553657 10.69114 241.553657 10.8724082 241.407467 11.3880852 241.318844 12.3889673 241.259762 12.9944971 241.201438 14.1157039 241.201438 14.3282253 241.201438 14.5704372 241.201438 14.9040646 240.995408 14.9040646 240.848461 14.9040646 240.789379 14.7829586 240.789379 14.6321622 240.789379 14.3282253 240.789379 14.0250697 240.671972 13.63128 240.555323 13.2062372 240.290212 12.6913416 239.144173 12.5702356 238.350354 12.4796015 235.441703 12.4186578 234.941021 12.4186578 234.794831 12.4186578 234.735749 12.5100733 234.735749 12.6303979L234.735749 15.2986356C234.735749 16.3284269 234.706208 19.8451875 234.735749 20.4819705 234.823615 22.5743688 235.264457 22.9681585 238.145082 22.9681585 238.90936 22.9681585 240.202346 22.9681585 240.966625 22.6345312 241.730145 22.3009038 242.082365 21.695374 242.289152 20.45228 242.347476 20.1186526 242.406558 19.9975466 242.552748 19.9975466 242.729994 19.9975466 242.729994 20.2397586 242.729994 20.45228 242.729994 20.6937106 242.494424 22.7556371 242.347476 23.3916387 242.141447 24.1799994 241.906634 24.1799994 240.760595 24.1799994 236.323388 24.1799994 234.353989 23.9987311 233.501088 23.9987311 233.354897 23.9987311 231.502905 24.0893653 230.62122 24.0893653 230.298542 24.0893653 230.150837 24.029203 230.150837 23.8471534 230.150837 23.7557379 230.209919 23.6651038 230.386407 23.6651038 230.650761 23.6651038 231.002981 23.6049415 231.268092 23.5439978 231.855882 23.4228919 232.002829 22.7556371 232.120236 21.8766423 232.267183 20.6030764 232.267183 18.2090852 232.267183 15.2986356L232.267183 9.96294159M257.482278 14.1858072C257.634059 14.1858072 257.634059 14.095531 257.604174 13.9749034L254.705395 5.82203333C254.552828 5.3690961 254.400261 5.3690961 254.247693 5.82203333L251.562823 13.9749034C251.501482 14.1251043 251.562823 14.1858072 251.654049 14.1858072L257.482278 14.1858072zM254.309035 2.10825936C254.675511 1.11210876 254.797408.929999978 254.979859.929999978 255.163097.929999978 255.284994 1.08097905 255.65147 2.01798321 256.109172 3.16433465 260.899313 15.6356733 262.760792 20.2249702 263.858647 22.9122421 264.74338 23.3947526 265.385107 23.5768614 265.842809 23.7270622 266.300511 23.7574137 266.605645 23.7574137 266.788097 23.7574137 266.909994 23.7877651 266.909994 23.9387442 266.909994 24.1200747 266.636316 24.1799994 266.300511 24.1799994 265.842809 24.1799994 263.614854 24.1799994 261.509583 24.1200747 260.929984 24.0897233 260.594179 24.0897233 260.594179 23.9083927 260.594179 23.7877651 260.685405 23.7270622 260.807301 23.697489 260.991326 23.636786 261.173777 23.3644011 260.991326 22.8818907L258.153102 15.4535645C258.09176 15.3329369 258.031205 15.2730122 257.878638 15.2730122L251.318244 15.2730122C251.166463 15.2730122 251.075237 15.3632883 251.013109 15.5142674L249.182302 20.8584597C248.908624 21.6133551 248.75527 22.3386773 248.75527 22.8818907 248.75527 23.4850287 249.39621 23.7574137 249.915254 23.7574137L250.220388 23.7574137C250.433511 23.7574137 250.524737 23.8173383 250.524737 23.9387442 250.524737 24.1200747 250.342285 24.1799994 250.067821 24.1799994 249.335655 24.1799994 248.023891 24.0897233 247.688086 24.0897233 247.35228 24.0897233 245.673253 24.1799994 244.239593 24.1799994 243.843232 24.1799994 243.659994 24.1200747 243.659994 23.9387442 243.659994 23.8173383 243.781891 23.7574137 243.934458 23.7574137 244.148367 23.7574137 244.575398 23.7270622 244.819191 23.697489 246.223754 23.5161584 246.833237 22.3682505 247.382165 20.8584597L254.309035 2.10825936zM272.975571 12.5244816C272.975571 12.6774682 273.037397 12.8011258 273.191171 12.8930763 273.652493 13.1697205 275.067373 13.3853285 276.420426 13.3853285 277.158383 13.3853285 278.019993 13.293378 278.727036 12.8011258 279.803455 12.0631438 280.602445 10.4016935 280.602445 8.06488269 280.602445 4.22040084 278.573262 1.91371173 275.282181 1.91371173 274.359537 1.91371173 273.529633 2.00566222 273.222085 2.09840539 273.067518 2.16023417 272.975571 2.28309906 272.975571 2.46779272L272.975571 12.5244816zM270.515979 9.8484052C270.515979 5.05033331 270.515979 4.18948645 270.454152 3.2057747 270.392325 2.16023417 270.146604 1.66798196 269.132012 1.4523739 268.885498 1.3913378 268.363142 1.36042341 268.085715 1.36042341 267.962854 1.36042341 267.839994 1.29859463 267.839994 1.17652242 267.839994.991036081 267.993768.929999978 268.332229.929999978 269.716195.929999978 271.653431 1.02195047 271.807998 1.02195047 272.145666 1.02195047 274.48319.929999978 275.436748.929999978 277.373983.929999978 279.43408 1.11390097 281.063768 2.28309906 281.832638 2.83638737 283.185691 4.3440584 283.185691 6.46526117 283.185691 8.74182857 282.232926 11.0176033 279.464993 13.5700222 281.986412 16.7993869 284.078214 19.5364995 285.861676 21.4428869 287.522277 23.1962877 288.845209 23.5347606 289.613287 23.6576255 290.198262 23.749576 290.628671 23.749576 290.812566 23.749576 290.967132 23.749576 291.089993 23.8415265 291.089993 23.9342696 291.089993 24.1189633 290.904513 24.1799994 290.351243 24.1799994L288.168286 24.1799994C286.445859 24.1799994 285.676989 24.0270128 284.877998 23.5957967 283.555065 22.8887291 282.47944 21.3818508 280.726099 19.0751617 279.43408 17.3835896 277.988287 15.3226303 277.373983 14.5228195 277.251123 14.3999546 277.158383 14.3389185 276.973695 14.3389185L273.191171 14.2770898C273.037397 14.2770898 272.975571 14.3690403 272.975571 14.5228195L272.975571 15.2615942C272.975571 18.2143148 272.975571 20.6430761 273.130137 21.9351391 273.222085 22.8269003 273.405979 23.5038462 274.328624 23.6267111 274.759825 23.6885399 275.436748 23.749576 275.71259 23.749576 275.897277 23.749576 275.959104 23.8415265 275.959104 23.9342696 275.959104 24.0880489 275.80533 24.1799994 275.466868 24.1799994 273.775354 24.1799994 271.838118 24.0880489 271.684344 24.0880489 271.653431 24.0880489 269.716195 24.1799994 268.793551 24.1799994 268.45509 24.1799994 268.301316 24.1189633 268.301316 23.9342696 268.301316 23.8415265 268.363142 23.749576 268.547037 23.749576 268.824464 23.749576 269.193046 23.6885399 269.469681 23.6267111 270.08557 23.5038462 270.238551 22.8269003 270.361412 21.9351391 270.515979 20.6430761 270.515979 18.2143148 270.515979 15.2615942L270.515979 9.8484052z"/>
    <path fill="#FFFFFF" d="M292.717182 9.96294159C292.717182 5.2335587 292.717182 4.38503568 292.6581 3.41540671 292.599775 2.3848341 292.364962 1.89962895 291.394655 1.68710753 291.159842 1.62694522 290.660675 1.5964734 290.395563 1.5964734 290.278157 1.5964734 290.159993 1.53552975 290.159993 1.41520513 290.159993 1.2323742 290.307698 1.17221189 290.630376 1.17221189 291.953661 1.17221189 293.804896 1.26284602 293.951086 1.26284602 294.157873 1.26284602 300.005473 1.26284602 300.681886 1.2323742 301.239377 1.20190238 301.709761 1.14174007 301.945331 1.08157775 302.092278 1.05110593 302.209685.929999978 302.356632.929999978 302.444498.929999978 302.474039 1.05110593 302.474039 1.20190238 302.474039 1.41520513 302.327091 1.77774166 302.239226 2.62704601 302.209685 2.93020156 302.150603 4.26392973 302.092278 4.62802892 302.062737 4.77882537 302.003656 4.9616563 301.886249 4.9616563 301.709761 4.9616563 301.651436 4.80929719 301.651436 4.56708528 301.651436 4.35456386 301.621895 3.83966822 301.474948 3.47556903 301.268918 2.99036388 300.975781 2.62704601 299.388142 2.44499641 298.888975 2.3848341 295.685672 2.35436228 295.362236 2.35436228 295.24483 2.35436228 295.185748 2.44499641 295.185748 2.6567365L295.185748 11.023986C295.185748 11.2365074 295.215289 11.3271416 295.362236 11.3271416 295.743997 11.3271416 299.359359 11.3271416 300.035014 11.2669793 300.74021 11.2060356 301.151512 11.1458733 301.416623 10.8419364 301.621895 10.5997245 301.739302 10.4481467 301.857466 10.4481467 301.945331 10.4481467 302.003656 10.5083091 302.003656 10.69114 302.003656 10.8724082 301.857466 11.3880852 301.7696 12.3889673 301.709761 12.9944971 301.651436 14.1157039 301.651436 14.3282253 301.651436 14.5704372 301.651436 14.9040646 301.445407 14.9040646 301.298459 14.9040646 301.239377 14.7829586 301.239377 14.6321622 301.239377 14.3282253 301.239377 14.0250697 301.121971 13.63128 301.005322 13.2062372 300.74021 12.6913416 299.594172 12.5702356 298.80111 12.4796015 295.891702 12.4186578 295.391777 12.4186578 295.24483 12.4186578 295.185748 12.5100733 295.185748 12.6303979L295.185748 15.2986356C295.185748 16.3284269 295.156207 19.8451875 295.185748 20.4819705 295.273613 22.5743688 295.714456 22.9681585 298.59508 22.9681585 299.359359 22.9681585 300.652345 22.9681585 301.416623 22.6345312 302.180901 22.3009038 302.532363 21.695374 302.73915 20.45228 302.797475 20.1186526 302.856557 19.9975466 303.002747 19.9975466 303.179993 19.9975466 303.179993 20.2397586 303.179993 20.45228 303.179993 20.6937106 302.944422 22.7556371 302.797475 23.3916387 302.591445 24.1799994 302.356632 24.1799994 301.210594 24.1799994 296.773386 24.1799994 294.803987 23.9987311 293.951086 23.9987311 293.804896 23.9987311 291.953661 24.0893653 291.071219 24.0893653 290.74854 24.0893653 290.600835 24.029203 290.600835 23.8471534 290.600835 23.7557379 290.660675 23.6651038 290.836406 23.6651038 291.101517 23.6651038 291.452979 23.6049415 291.718091 23.5439978 292.30588 23.4228919 292.452828 22.7556371 292.570234 21.8766423 292.717182 20.6030764 292.717182 18.2090852 292.717182 15.2986356L292.717182 9.96294159M68.2616653 43.165933C68.2616653 47.66876 68.3797509 49.6292228 68.9081084 50.1811211 69.37818 50.6714342 70.1419517 50.8854034 72.4325101 50.8854034 73.988818 50.8854034 75.2809472 50.8546108 75.9856762 49.9663624 76.3679405 49.4760493 76.6608837 48.7101819 76.7494479 48.1282805 76.7789693 47.8827292 76.8372552 47.7303452 77.0136267 47.7303452 77.1604767 47.7303452 77.1899981 47.8527261 77.1899981 48.1898657 77.1899981 48.5270053 76.9848622 50.3650872 76.7494479 51.2533356 76.544312 51.9576179 76.4557478 52.0799987 74.8994398 52.0799987 70.6703092 52.0799987 68.7317369 51.8968222 67.0285789 51.8968222 66.7644001 51.8968222 65.0317207 51.9884105 64.1506203 51.9884105 63.8273988 51.9884105 63.6805487 51.9276148 63.6805487 51.7428591 63.6805487 51.6512709 63.7395915 51.5596826 63.915206 51.5596826 64.1793847 51.5596826 64.5321277 51.4988869 64.7963064 51.4365122 65.3837067 51.3141313 65.5305568 50.6406416 65.6478854 49.7523933 65.7954925 48.4654201 65.7954925 46.0454368 65.7954925 43.1051373L65.7954925 37.7132724C65.7954925 32.9341015 65.7954925 32.0766457 65.7364497 31.0968091 65.6774068 30.0545977 65.4427495 29.5642846 64.4730849 29.3503155 64.2384276 29.2895198 63.7395915 29.2587272 63.4746558 29.2587272 63.3573271 29.2587272 63.2399985 29.1963524 63.2399985 29.0747611 63.2399985 28.890795 63.3868485 28.8299993 63.7100701 28.8299993 65.0317207 28.8299993 66.8817288 28.9215876 67.0285789 28.9215876 67.1754289 28.9215876 69.3191372 28.8299993 70.2002376 28.8299993 70.5234591 28.8299993 70.6703092 28.890795 70.6703092 29.0747611 70.6703092 29.1963524 70.5529806 29.2587272 70.4348949 29.2587272 70.229759 29.2587272 69.8187302 29.2895198 69.4659873 29.3503155 68.6144082 29.5034889 68.3797509 30.0238051 68.3207081 31.0968091 68.2616653 32.0766457 68.2616653 32.9341015 68.2616653 37.7132724L68.2616653 43.165933M85.5311578 43.1615935C85.5311578 46.1135214 85.5311578 48.5430754 85.676482 49.8351384 85.7633769 50.7268997 85.9379158 51.4030529 86.809861 51.5259177 87.2166189 51.5885392 87.856345 51.6495753 88.1177788 51.6495753 88.2923176 51.6495753 88.3499979 51.7415258 88.3499979 51.8334763 88.3499979 51.9880482 88.2046737 52.0799987 87.8855597 52.0799987 86.2869935 52.0799987 84.4554591 51.9880482 84.3101349 51.9880482 84.1648107 51.9880482 82.3340254 52.0799987 81.4620802 52.0799987 81.1422171 52.0799987 80.9968929 52.0189626 80.9968929 51.8334763 80.9968929 51.7415258 81.0553222 51.6495753 81.2298611 51.6495753 81.4912948 51.6495753 81.8396235 51.5885392 82.1018063 51.5259177 82.682354 51.4030529 82.8284273 50.7268997 82.9445369 49.8351384 83.0898611 48.5430754 83.0898611 46.1135214 83.0898611 43.1615935L83.0898611 37.7484045C83.0898611 32.9503326 83.0898611 32.0894858 83.0314317 31.105774 82.9737515 30.0594408 82.682354 29.5362742 82.043377 29.3832876 81.7235139 29.2913371 81.3459706 29.2604227 81.1422171 29.2604227 81.0261076 29.2604227 80.909998 29.1978013 80.909998 29.0757291 80.909998 28.8910354 81.0553222 28.8299993 81.3751853 28.8299993 82.3340254 28.8299993 84.1648107 28.9219498 84.3101349 28.9219498 84.4554591 28.9219498 86.2869935 28.8299993 87.1589387 28.8299993 87.4780527 28.8299993 87.6233769 28.8910354 87.6233769 29.0757291 87.6233769 29.1978013 87.5072673 29.2604227 87.3911578 29.2604227 87.1874043 29.2604227 87.0136145 29.2913371 86.6645368 29.3523732 85.8802355 29.5061525 85.6472674 30.0285264 85.588838 31.105774 85.5311578 32.0894858 85.5311578 32.9503326 85.5311578 37.7484045L85.5311578 43.1615935M96.8761954 41.6341981C96.8761954 43.9933857 96.8761954 47.7911409 96.905126 48.2506614 96.9911762 49.7523933 96.9911762 50.1811211 97.8835756 50.6406416 98.6609942 51.0393664 99.898336 51.1001621 100.416862 51.1001621 101.970958 51.1001621 104.474572 50.2119138 104.474572 46.749719 104.474572 44.9124267 103.898926 42.246892 101.683135 40.6235688 100.703943 39.9192866 99.9851279 39.8269087 99.2937595 39.7345309 98.9198864 39.6737352 97.4807719 39.6737352 97.0490375 39.6737352 96.9340567 39.6737352 96.8761954 39.7345309 96.8761954 39.888494L96.8761954 41.6341981zM96.8761954 38.3867621C96.8761954 38.6015208 96.9340567 38.663106 97.0779681 38.7239017 97.2508103 38.7546943 97.7685948 38.8462826 98.8338363 38.8462826 100.445051 38.8462826 100.848597 38.7854869 101.452431 38.0496225 102.057008 37.3153372 102.488742 36.2115405 102.488742 34.9561495 102.488742 32.4137853 101.424243 29.6874551 98.6031329 29.6874551 98.2871211 29.6874551 97.6825446 29.7182477 97.2218796 29.8406285 96.9629873 29.9014242 96.8761954 29.9930125 96.8761954 30.1777681L96.8761954 38.3867621zM94.5743539 37.7132724C94.5743539 32.9341015 94.5743539 32.0766457 94.5164926 31.0968091 94.4586312 30.0545977 94.2286696 29.5642846 93.2791507 29.3503155 93.0484473 29.2895198 92.5595935 29.2587272 92.2999594 29.2587272 92.1849786 29.2587272 92.0699978 29.1963524 92.0699978 29.0747611 92.0699978 28.890795 92.2139092 28.8299993 92.5306628 28.8299993 93.8258659 28.8299993 95.6388536 28.9215876 95.782765 28.9215876 96.4733917 28.9215876 97.5957527 28.8299993 98.9198864 28.8299993 103.640034 28.8299993 104.676345 31.8934692 104.676345 33.4244146 104.676345 35.9367757 103.32328 37.437718 101.970958 38.9378708 104.100699 39.6429426 106.949997 41.8181642 106.949997 45.4019502 106.949997 48.6793893 104.532433 52.0799987 99.6105131 52.0799987 98.9488171 52.0799987 96.0134684 51.8968222 95.782765 51.8968222 95.6388536 51.8968222 93.8258659 51.9884105 92.9623972 51.9884105 92.6456436 51.9884105 92.5017321 51.9276148 92.5017321 51.7428591 92.5017321 51.6512709 92.5595935 51.5596826 92.7316938 51.5596826 92.990586 51.5596826 93.3362702 51.4988869 93.5951625 51.4365122 94.1708083 51.3141313 94.3154616 50.6406416 94.4297006 49.7523933 94.5743539 48.4654201 94.5743539 46.0454368 94.5743539 43.1051373L94.5743539 37.7132724zM115.805574 40.424481C115.805574 40.5774676 115.866608 40.7003325 116.021175 40.7930756 116.482497 41.0697198 117.896584 41.2853278 119.249637 41.2853278 119.987594 41.2853278 120.849204 41.1925847 121.556248 40.7003325 122.632666 39.9631431 123.432449 38.3016928 123.432449 35.964882 123.432449 32.1204002 121.402474 29.8137111 118.112185 29.8137111 117.189541 29.8137111 116.358844 29.9056615 116.051296 29.997612 115.897522 30.0594408 115.805574 30.1830984 115.805574 30.3669994L115.805574 40.424481zM113.34519 37.7484045C113.34519 32.9503326 113.34519 32.0894858 113.283363 31.105774 113.222329 30.0594408 112.975815 29.5671886 111.961224 29.3523732 111.71471 29.2913371 111.192353 29.2604227 110.915719 29.2604227 110.792858 29.2604227 110.669997 29.1978013 110.669997 29.0757291 110.669997 28.8910354 110.822979 28.8299993 111.16144 28.8299993 112.545406 28.8299993 114.483435 28.9219498 114.636416 28.9219498 114.974878 28.9219498 117.312401 28.8299993 118.265959 28.8299993 120.203195 28.8299993 122.264084 29.0139003 123.893771 30.1830984 124.662642 30.7363867 126.015694 32.243265 126.015694 34.3652605 126.015694 36.6410352 125.06293 38.9168099 122.294204 41.4692288 124.816416 44.6985936 126.907425 47.4357061 128.69168 49.3428862 130.352281 51.096287 131.67442 51.4339673 132.442498 51.5568321 133.027473 51.6495753 133.458675 51.6495753 133.642569 51.6495753 133.795551 51.6495753 133.919997 51.7415258 133.919997 51.8334763 133.919997 52.0189626 133.734517 52.0799987 133.181247 52.0799987L130.997498 52.0799987C129.27507 52.0799987 128.5062 51.9262195 127.707209 51.4950034 126.385069 50.7887284 125.307858 49.2810574 123.554517 46.9743683 122.264084 45.2827963 120.818291 43.2226296 120.203195 42.4228189 120.080334 42.299954 119.987594 42.2389179 119.802907 42.2389179L116.021175 42.1770891C115.866608 42.1770891 115.805574 42.2690396 115.805574 42.4228189L115.805574 43.1615935C115.805574 46.1135214 115.805574 48.5430754 115.959348 49.8351384 116.051296 50.7268997 116.235983 51.4030529 117.158627 51.5259177 117.589036 51.5885392 118.265959 51.6495753 118.542594 51.6495753 118.727281 51.6495753 118.788315 51.7415258 118.788315 51.8334763 118.788315 51.9880482 118.634541 52.0799987 118.296872 52.0799987 116.604565 52.0799987 114.667329 51.9880482 114.513555 51.9880482 114.483435 51.9880482 112.545406 52.0799987 111.622762 52.0799987 111.284301 52.0799987 111.131319 52.0189626 111.131319 51.8334763 111.131319 51.7415258 111.192353 51.6495753 111.377041 51.6495753 111.653676 51.6495753 112.02305 51.5885392 112.299685 51.5259177 112.914781 51.4030529 113.068555 50.7268997 113.191416 49.8351384 113.34519 48.5430754 113.34519 46.1135214 113.34519 43.1615935L113.34519 37.7484045z"/>
    <path fill="#FFFFFF" d="M144.95228,41.1558065 C145.104848,41.1558065 145.104848,41.0655304 145.074177,40.9441245 L142.175398,32.7920327 C142.022044,32.3390955 141.870263,32.3390955 141.717696,32.7920327 L139.03204,40.9441245 C138.971485,41.0951036 139.03204,41.1558065 139.124052,41.1558065 L144.95228,41.1558065 Z M141.778251,29.0774805 C142.144727,28.0813299 142.266624,27.8999993 142.449862,27.8999993 C142.6331,27.8999993 142.754997,28.0509784 143.121473,28.9872043 C143.579175,30.134334 148.36853,42.6048944 150.230795,47.1949696 C151.32865,49.8822415 152.213383,50.3647519 152.854323,50.5460825 C153.312812,50.6970615 153.770513,50.727413 154.074862,50.727413 C154.2581,50.727413 154.379996,50.7577645 154.379996,50.9079653 C154.379996,51.0900741 154.105532,51.1499988 153.770513,51.1499988 C153.312812,51.1499988 151.084857,51.1499988 148.979585,51.0900741 C148.399201,51.0597226 148.064182,51.0597226 148.064182,50.8783921 C148.064182,50.7577645 148.155407,50.6970615 148.277304,50.6674883 C148.461328,50.6060071 148.64378,50.3344005 148.461328,49.85189 L145.623105,42.4235638 C145.56255,42.3029362 145.501208,42.2422333 145.348641,42.2422333 L138.789033,42.2422333 C138.635679,42.2422333 138.544453,42.3332877 138.483112,42.4842668 L136.652304,47.8284591 C136.37784,48.5833545 136.225273,49.3086766 136.225273,49.85189 C136.225273,50.4550281 136.865427,50.727413 137.385256,50.727413 L137.689605,50.727413 C137.903513,50.727413 137.994739,50.7873377 137.994739,50.9079653 C137.994739,51.0900741 137.812288,51.1499988 137.537037,51.1499988 C136.804872,51.1499988 135.492321,51.0597226 135.158088,51.0597226 C134.821497,51.0597226 133.144043,51.1499988 131.709595,51.1499988 C131.313235,51.1499988 131.129997,51.0900741 131.129997,50.9079653 C131.129997,50.7873377 131.251893,50.727413 131.404461,50.727413 C131.61837,50.727413 132.045401,50.6970615 132.289194,50.6674883 C133.692184,50.4853795 134.30324,49.3382499 134.852167,47.8284591 L141.778251,29.0774805 Z"/>
    <path fill="#FFFFFF" d="M158.586366 40.424481C158.586366 40.5774676 158.648193 40.7003325 158.801174 40.7930756 159.262496 41.0697198 160.677376 41.2853278 162.030429 41.2853278 162.768386 41.2853278 163.629996 41.1925847 164.337039 40.7003325 165.413457 39.9631431 166.213241 38.3016928 166.213241 35.964882 166.213241 32.1204002 164.183265 29.8137111 160.892976 29.8137111 159.970332 29.8137111 159.139635 29.9056615 158.832087 29.997612 158.678313 30.0594408 158.586366 30.1830984 158.586366 30.3669994L158.586366 40.424481zM156.125982 37.7484045C156.125982 32.9503326 156.125982 32.0894858 156.064155 31.105774 156.003121 30.0594408 155.756607 29.5671886 154.742015 29.3523732 154.495501 29.2913371 153.973145 29.2604227 153.69651 29.2604227 153.572857 29.2604227 153.449996 29.1978013 153.449996 29.0757291 153.449996 28.8910354 153.60377 28.8299993 153.942232 28.8299993 155.326198 28.8299993 157.264226 28.9219498 157.418 28.9219498 157.756462 28.9219498 160.093193 28.8299993 161.046751 28.8299993 162.983986 28.8299993 165.044083 29.0139003 166.674563 30.1830984 167.442641 30.7363867 168.795693 32.243265 168.795693 34.3652605 168.795693 36.6410352 167.842929 38.9168099 165.074996 41.4692288 167.597207 44.6985936 169.688217 47.4357061 171.471679 49.3428862 173.13228 51.096287 174.455212 51.4339673 175.224082 51.5568321 175.808265 51.6495753 176.238674 51.6495753 176.423361 51.6495753 176.577135 51.6495753 176.699996 51.7415258 176.699996 51.8334763 176.699996 52.0189626 176.516101 52.0799987 175.961246 52.0799987L173.779082 52.0799987C172.056654 52.0799987 171.286991 51.9262195 170.488 51.4950034 169.165068 50.7887284 168.089443 49.2810574 166.336102 46.9743683 165.044083 45.2827963 163.599082 43.2226296 162.983986 42.4228189 162.861126 42.299954 162.768386 42.2389179 162.584491 42.2389179L158.801174 42.1770891C158.648193 42.1770891 158.586366 42.2690396 158.586366 42.4228189L158.586366 43.1615935C158.586366 46.1135214 158.586366 48.5430754 158.74014 49.8351384 158.832087 50.7268997 159.016775 51.4030529 159.939419 51.5259177 160.37062 51.5885392 161.046751 51.6495753 161.323385 51.6495753 161.508073 51.6495753 161.569107 51.7415258 161.569107 51.8334763 161.569107 51.9880482 161.415333 52.0799987 161.076871 52.0799987 159.385357 52.0799987 157.448121 51.9880482 157.29514 51.9880482 157.264226 51.9880482 155.326198 52.0799987 154.403554 52.0799987 154.065092 52.0799987 153.911318 52.0189626 153.911318 51.8334763 153.911318 51.7415258 153.973145 51.6495753 154.157832 51.6495753 154.434467 51.6495753 154.803049 51.5885392 155.080477 51.5259177 155.695573 51.4030529 155.848554 50.7268997 155.972207 49.8351384 156.125982 48.5430754 156.125982 46.1135214 156.125982 43.1615935L156.125982 37.7484045zM181.530531 44.1143909C181.530531 42.4537332 181.234264 41.77758 180.848659 40.8858188 180.641731 40.3935666 176.671909 33.6264858 175.634976 32.0284497 174.894309 30.890166 174.153642 30.1212696 173.620668 29.7526749 173.176268 29.4443237 172.61275 29.2604227 172.347026 29.2604227 172.198129 29.2604227 172.049996 29.1978013 172.049996 29.0448147 172.049996 28.9219498 172.16835 28.8299993 172.435601 28.8299993 172.998355 28.8299993 175.219592 28.9219498 175.368489 28.9219498 175.575417 28.9219498 176.701689 28.8299993 177.856213 28.8299993 178.182259 28.8299993 178.241818 28.9219498 178.241818 29.0448147 178.241818 29.1676796 178.063905 29.1978013 177.797418 29.3214588 177.56071 29.4443237 177.411813 29.6298101 177.411813 29.8747472 177.411813 30.2441345 177.56071 30.6135218 177.797418 31.0748596 178.271597 31.9666209 182.715598 39.9013144 183.248573 40.7930756 183.811327 39.5018053 187.57422 32.7664317 188.165989 31.7510128 188.551594 31.105774 188.670712 30.5826074 188.670712 30.1830984 188.670712 29.7526749 188.551594 29.414202 188.195769 29.3214588 187.929282 29.2295083 187.751369 29.1676796 187.751369 29.0139003 187.751369 28.8910354 187.929282 28.8299993 188.225548 28.8299993 188.995994 28.8299993 189.94359 28.9219498 190.181061 28.9219498 190.358211 28.9219498 192.491636 28.8299993 193.055154 28.8299993 193.262083 28.8299993 193.439995 28.8910354 193.439995 29.0139003 193.439995 29.1676796 193.291098 29.2604227 193.055154 29.2604227 192.729108 29.2604227 192.166354 29.3832876 191.692174 29.6908462 191.098877 30.0594408 190.772831 30.4288281 190.121503 31.2587606 189.144128 32.4897875 184.996394 39.7166207 184.463419 41.0388054 184.019019 42.1461747 184.019019 43.0997647 184.019019 44.1143909L184.019019 46.7595529C184.019019 47.2518051 184.019019 48.5430754 184.107593 49.8351384 184.167152 50.7268997 184.43364 51.4030529 185.32244 51.5259177 185.73706 51.5885392 186.388389 51.6495753 186.65564 51.6495753 186.832789 51.6495753 186.892348 51.7415258 186.892348 51.8334763 186.892348 51.9880482 186.744215 52.0799987 186.418168 52.0799987 184.789465 52.0799987 182.922527 51.9880482 182.775157 51.9880482 182.62626 51.9880482 180.760085 52.0799987 179.871285 52.0799987 179.545239 52.0799987 179.397105 52.0189626 179.397105 51.8334763 179.397105 51.7415258 179.456664 51.6495753 179.634577 51.6495753 179.901064 51.6495753 180.256126 51.5885392 180.523377 51.5259177 181.11591 51.4030529 181.382398 50.7268997 181.441956 49.8351384 181.530531 48.5430754 181.530531 47.2518051 181.530531 46.7595529L181.530531 44.1143909"/>
  </g>
</svg>
