<svg xmlns="http://www.w3.org/2000/svg" width="18" height="23" viewBox="0 0 18 23">
  <path fill="#000000" d="M5.90959186,20.1277495 C5.90959186,20.4794995 5.97952786,20.6564995 6.04946385,20.7269995 C6.29423985,20.9384995 6.39914385,21.0089995 7.41321582,21.1147495 C7.69295981,21.1499995 9.61619977,21.4672495 9.61619977,22.0664995 C9.61619977,22.3484995 9.44135977,22.4189995 9.33645577,22.4189995 C9.02174378,22.4189995 7.51811982,22.2074995 5.42003987,22.2074995 C4.61577589,22.2074995 1.08400797,22.5247495 0.349679992,22.5247495 C0.279743993,22.5247495 0.139871997,22.4894995 0,22.4894995 L0.0349679992,22.0312495 C0.314711992,21.8902495 1.74839996,21.6434995 2.02814395,21.5722495 C2.41279194,21.4672495 3.04221593,21.1852495 3.07718393,21.0089995 C3.21705592,20.2687495 3.21705592,19.0702495 3.21705592,18.2947496 C3.21705592,16.2149996 2.97227993,6.87374983 2.97227993,4.97024988 C2.97227993,3.87749991 2.97227993,2.29049994 2.93731193,2.11499995 C2.79743993,1.58624996 2.58763194,1.55099996 0.874199979,1.19774997 C0.559487986,1.12799997 0.0699359983,0.986999976 0.0699359983,0.669749984 C0.0699359983,0.387749991 0.279743993,0.317249992 0.524519987,0.317249992 L5.80468786,0.317249992 C8.1125758,0.317249992 10.1756878,0.246749994 11.8541517,0.140999997 C13.5675837,0.0704999983 14.8613996,0 15.5957276,0 C17.3441276,0 17.7637436,0 17.7637436,0.563999986 L17.7637436,1.26899997 C17.7637436,1.83299996 17.9385836,4.3357499 17.8686476,4.82924988 C17.7637436,4.86449988 17.5889036,4.93499988 17.3790956,4.93499988 C17.2042556,4.93499988 17.0294156,4.86449988 16.9594796,4.1242499 C16.9245116,3.73649991 16.5398636,2.29049994 16.3300556,1.97399995 C15.7705676,1.09274997 13.2878397,1.05749997 12.2737677,1.05749997 C11.7142797,1.05749997 9.37142377,1.16324997 8.91683978,1.16324997 C6.15436785,1.16324997 5.90959186,1.16324997 5.90959186,2.15024995 L5.90959186,9.02399978 C5.90959186,9.72824976 5.90959186,9.97574976 5.97952786,10.3282498 C6.64391984,10.3987497 11.9240877,10.3282498 13.0080957,10.1519998 C14.3019117,9.94049976 14.4767517,9.16499978 14.8264316,6.69674984 C15.0362396,6.55649984 15.1761116,6.59174984 15.4208876,6.66224984 C15.5257916,7.40249982 15.6656636,13.0072497 15.7006316,14.2057497 C15.3509516,14.3467497 15.2810156,14.3467497 15.0712076,14.3114997 C14.8264316,12.7252497 14.3019117,11.2799997 13.7424237,11.1742497 C13.1479677,11.1029997 12.4486077,11.1029997 9.86097576,11.1029997 L6.71385584,11.1389997 C6.11939985,11.1389997 5.90959186,11.2094997 5.90959186,11.5972497 L5.90959186,20.1277495"/>
</svg>
