<svg width="167" height="35" viewBox="0 0 167 35" fill="none" xmlns="http://www.w3.org/2000/svg">
<path fill-rule="evenodd" clip-rule="evenodd" d="M0 7.01111V5.68889H5.26395L10.7126 16.2667L16.2767 5.68889H21.2405V7.01111H19.1395V20.8944H21.2405V22.2167H14.5451V20.8944H16.6461V10.3639C16.6615 10.2852 16.673 10.1002 16.6807 9.80903C16.6884 9.51782 16.7 9.20695 16.7154 8.87639C16.7307 8.48287 16.7461 8.05787 16.7615 7.60139H16.5537L15.561 10.1278L10.828 18.675H9.4197L4.8022 10.1278L3.78635 7.36528H3.55548V8.82917C3.55548 9.19121 3.55932 9.53356 3.56702 9.85625C3.57472 10.1789 3.57856 10.3482 3.57856 10.3639V20.8944H5.541V22.2167H0V20.8944H2.10096V7.01111H0ZM30.9714 22.2167H24.1837V20.8944H26.2846V7.01111H24.1837V5.68889H30.9714V7.01111H28.8704V20.8944H30.9714V22.2167ZM38.6013 20.8944H40.5868V22.2167H33.9145V20.8944H36.0155V7.01111H33.9145V5.68889H36.2464C36.939 5.68889 37.6932 5.65741 38.509 5.59444C39.3247 5.53148 40.1251 5.5 40.9101 5.5C41.7566 5.5 42.5531 5.59051 43.2996 5.77153C44.0461 5.95255 44.6887 6.23194 45.2274 6.60972C45.7661 6.9875 46.1932 7.47152 46.5088 8.06181C46.8243 8.65209 46.9821 9.35648 46.9821 10.175C46.9821 11.3083 46.6396 12.2724 45.9547 13.0674C45.2697 13.8623 44.3732 14.425 43.265 14.7556L47.8594 20.8944H49.2908V22.2167H45.5507L40.9562 15.0861H38.6013V20.8944ZM40.4252 13.8583C41.6104 13.8583 42.5377 13.5278 43.2073 12.8667C43.8768 12.2055 44.2116 11.3083 44.2116 10.175C44.2116 9.01018 43.8576 8.16019 43.1496 7.625C42.4415 7.08981 41.5026 6.82222 40.3329 6.82222C39.9327 6.82222 39.5979 6.83796 39.3286 6.86944C39.0592 6.90093 38.8168 6.93241 38.6013 6.96389V13.8583H40.4252ZM56.1819 22.2167H50.5255V20.8944H52.3263L58.306 5.68889H60.7533L66.225 20.8944H67.9566V22.2167H61.3535V20.8944H63.4083L61.9076 16.7389H55.7664L54.1964 20.8944H56.1819V22.2167ZM56.2974 15.4167H61.5152L59.622 9.9625L59.0448 7.45972H58.9524L58.2829 10.0097L56.2974 15.4167ZM81.4738 5.68889H87.1533V7.01111H85.0524V22.5H83.5517L74.1551 9.5375L73.1392 7.71944H73.0469L73.2777 9.56111V20.8944H75.3787V22.2167H69.6992V20.8944H71.8001V7.01111H69.6992V5.68889H74.3167L82.3973 16.8097L83.5979 18.8403H83.7133L83.5748 16.8097V7.01111H81.4738V5.68889ZM89.6347 22.2167V20.8944H91.7357V7.01111H89.6347V5.68889H92.4745C92.767 5.68889 93.1094 5.68102 93.5019 5.66528C93.8944 5.64954 94.2984 5.62986 94.714 5.60625C95.1296 5.58264 95.5259 5.55903 95.903 5.53542C96.2801 5.51181 96.5995 5.5 96.8611 5.5C98.2926 5.5 99.5547 5.68495 100.647 6.05486C101.74 6.42477 102.656 6.95995 103.395 7.66042C104.134 8.36088 104.692 9.22268 105.069 10.2458C105.446 11.269 105.634 12.4338 105.634 13.7403C105.634 14.9995 105.457 16.1565 105.103 17.2111C104.749 18.2657 104.195 19.1826 103.441 19.9618C102.687 20.741 101.721 21.347 100.544 21.7799C99.3661 22.2127 97.9616 22.4292 96.3301 22.4292C96.0839 22.4292 95.7991 22.4174 95.4759 22.3937C95.1527 22.3701 94.8102 22.3465 94.4485 22.3229C94.0868 22.2993 93.7212 22.2757 93.3518 22.2521C92.9824 22.2285 92.6361 22.2167 92.3129 22.2167H89.6347ZM96.5148 6.82222C96.0839 6.82222 95.6683 6.83009 95.2681 6.84583C94.8679 6.86157 94.5524 6.89306 94.3215 6.94028V21.0125C94.4139 21.0282 94.5678 21.04 94.7833 21.0479C94.9987 21.0558 95.2335 21.0637 95.4874 21.0715C95.7414 21.0794 95.9838 21.0873 96.2147 21.0951C96.4456 21.103 96.6072 21.1069 96.6995 21.1069C97.8539 21.1069 98.8159 20.9063 99.5855 20.5049C100.355 20.1035 100.975 19.5683 101.444 18.8993C101.913 18.2303 102.248 17.4512 102.448 16.5618C102.648 15.6724 102.748 14.7319 102.748 13.7403C102.748 12.969 102.652 12.1741 102.46 11.3556C102.267 10.537 101.933 9.78936 101.456 9.1125C100.978 8.43564 100.34 7.88472 99.5393 7.45972C98.7389 7.03472 97.7308 6.82222 96.5148 6.82222ZM112.225 22.2167H106.569V20.8944H108.37L114.349 5.68889H116.797L122.268 20.8944H124V22.2167H117.397V20.8944H119.452L117.951 16.7389H111.81L110.24 20.8944H112.225V22.2167ZM112.341 15.4167H117.559L115.665 9.9625L115.088 7.45972H114.996L114.326 10.0097L112.341 15.4167Z" fill="white"/>
<path d="M127.698 16V8.17969H130.438C131.386 8.17969 132.106 8.3623 132.597 8.72754C133.087 9.08919 133.333 9.62093 133.333 10.3227C133.333 10.7059 133.234 11.0443 133.037 11.3379C132.84 11.6279 132.566 11.841 132.215 11.977C132.616 12.0773 132.931 12.2796 133.161 12.584C133.393 12.8883 133.51 13.2607 133.51 13.7012C133.51 14.4531 133.27 15.0225 132.79 15.4092C132.31 15.7959 131.626 15.9928 130.738 16H127.698ZM129.31 12.5947V14.7056H130.69C131.069 14.7056 131.365 14.616 131.576 14.437C131.791 14.2544 131.898 14.0037 131.898 13.6851C131.898 12.9689 131.528 12.6055 130.787 12.5947H129.31ZM129.31 11.456H130.502C131.315 11.4417 131.721 11.1177 131.721 10.4839C131.721 10.1294 131.617 9.87516 131.41 9.72119C131.206 9.56364 130.882 9.48486 130.438 9.48486H129.31V11.456ZM141.629 12.6108H138.535V14.7056H142.166V16H136.924V8.17969H142.155V9.48486H138.535V11.3486H141.629V12.6108ZM151.305 9.48486H148.91V16H147.298V9.48486H144.935V8.17969H151.305V9.48486ZM158.2 14.3887H155.374L154.837 16H153.124L156.035 8.17969H157.528L160.455 16H158.742L158.2 14.3887ZM155.809 13.0835H157.765L156.782 10.1562L155.809 13.0835Z" fill="#ECECEC" fill-opacity="0.4"/>
</svg>
