<svg width="167" height="35" viewBox="0 0 167 35" fill="none" xmlns="http://www.w3.org/2000/svg">
<rect width="167" height="35" fill="transparent"/>
<g clip-path="url(#clip0)">
<path fill-rule="evenodd" clip-rule="evenodd" d="M0 2.51111V1.18889H5.26395L10.7126 11.7667L16.2767 1.18889H21.2405V2.51111H19.1395V16.3944H21.2405V17.7167H14.5451V16.3944H16.6461V5.86389C16.6615 5.78518 16.673 5.60023 16.6807 5.30903C16.6884 5.01782 16.7 4.70695 16.7154 4.37639C16.7307 3.98287 16.7461 3.55787 16.7615 3.10139H16.5537L15.561 5.62778L10.828 14.175H9.4197L4.8022 5.62778L3.78635 2.86528H3.55548V4.32917C3.55548 4.69121 3.55932 5.03356 3.56702 5.35625C3.57472 5.67894 3.57856 5.84815 3.57856 5.86389V16.3944H5.541V17.7167H0V16.3944H2.10096V2.51111H0ZM30.9714 17.7167H24.1837V16.3944H26.2846V2.51111H24.1837V1.18889H30.9714V2.51111H28.8704V16.3944H30.9714V17.7167ZM38.6013 16.3944H40.5868V17.7167H33.9145V16.3944H36.0155V2.51111H33.9145V1.18889H36.2464C36.939 1.18889 37.6932 1.15741 38.509 1.09444C39.3247 1.03148 40.1251 1 40.9101 1C41.7566 1 42.5531 1.09051 43.2996 1.27153C44.0461 1.45255 44.6887 1.73194 45.2274 2.10972C45.7661 2.4875 46.1932 2.97152 46.5088 3.56181C46.8243 4.15209 46.9821 4.85648 46.9821 5.675C46.9821 6.80834 46.6396 7.77245 45.9547 8.56736C45.2697 9.36227 44.3732 9.925 43.265 10.2556L47.8594 16.3944H49.2908V17.7167H45.5507L40.9562 10.5861H38.6013V16.3944ZM40.4252 9.35833C41.6104 9.35833 42.5377 9.02778 43.2073 8.36667C43.8768 7.70555 44.2116 6.80834 44.2116 5.675C44.2116 4.51018 43.8576 3.66019 43.1496 3.125C42.4415 2.58981 41.5026 2.32222 40.3329 2.32222C39.9327 2.32222 39.5979 2.33796 39.3286 2.36944C39.0592 2.40093 38.8168 2.43241 38.6013 2.46389V9.35833H40.4252ZM56.1819 17.7167H50.5255V16.3944H52.3263L58.306 1.18889H60.7533L66.225 16.3944H67.9566V17.7167H61.3535V16.3944H63.4083L61.9076 12.2389H55.7664L54.1964 16.3944H56.1819V17.7167ZM56.2974 10.9167H61.5152L59.622 5.4625L59.0448 2.95972H58.9524L58.2829 5.50972L56.2974 10.9167ZM81.4738 1.18889H87.1533V2.51111H85.0524V18H83.5517L74.1551 5.0375L73.1392 3.21944H73.0469L73.2777 5.06111V16.3944H75.3787V17.7167H69.6992V16.3944H71.8001V2.51111H69.6992V1.18889H74.3167L82.3973 12.3097L83.5979 14.3403H83.7133L83.5748 12.3097V2.51111H81.4738V1.18889ZM89.6347 17.7167V16.3944H91.7357V2.51111H89.6347V1.18889H92.4745C92.767 1.18889 93.1094 1.18102 93.5019 1.16528C93.8944 1.14954 94.2984 1.12986 94.714 1.10625C95.1296 1.08264 95.5259 1.05903 95.903 1.03542C96.2801 1.01181 96.5995 1 96.8611 1C98.2926 1 99.5547 1.18495 100.647 1.55486C101.74 1.92477 102.656 2.45995 103.395 3.16042C104.134 3.86088 104.692 4.72268 105.069 5.74583C105.446 6.76899 105.634 7.93379 105.634 9.24028C105.634 10.4995 105.457 11.6565 105.103 12.7111C104.749 13.7657 104.195 14.6826 103.441 15.4618C102.687 16.241 101.721 16.847 100.544 17.2799C99.3661 17.7127 97.9616 17.9292 96.3301 17.9292C96.0839 17.9292 95.7991 17.9174 95.4759 17.8937C95.1527 17.8701 94.8102 17.8465 94.4485 17.8229C94.0868 17.7993 93.7212 17.7757 93.3518 17.7521C92.9824 17.7285 92.6361 17.7167 92.3129 17.7167H89.6347ZM96.5148 2.32222C96.0839 2.32222 95.6683 2.33009 95.2681 2.34583C94.8679 2.36157 94.5524 2.39306 94.3215 2.44028V16.5125C94.4139 16.5282 94.5678 16.54 94.7833 16.5479C94.9987 16.5558 95.2335 16.5637 95.4874 16.5715C95.7414 16.5794 95.9838 16.5873 96.2147 16.5951C96.4456 16.603 96.6072 16.6069 96.6995 16.6069C97.8539 16.6069 98.8159 16.4063 99.5855 16.0049C100.355 15.6035 100.975 15.0683 101.444 14.3993C101.913 13.7303 102.248 12.9512 102.448 12.0618C102.648 11.1724 102.748 10.2319 102.748 9.24028C102.748 8.46898 102.652 7.67408 102.46 6.85556C102.267 6.03703 101.933 5.28936 101.456 4.6125C100.978 3.93564 100.34 3.38472 99.5393 2.95972C98.7389 2.53472 97.7308 2.32222 96.5148 2.32222ZM112.225 17.7167H106.569V16.3944H108.37L114.349 1.18889H116.797L122.268 16.3944H124V17.7167H117.397V16.3944H119.452L117.951 12.2389H111.81L110.24 16.3944H112.225V17.7167ZM112.341 10.9167H117.559L115.665 5.4625L115.088 2.95972H114.996L114.326 5.50972L112.341 10.9167Z" fill="white"/>
<path opacity="0.704" fill-rule="evenodd" clip-rule="evenodd" d="M0 24.53H2.90759C4.16461 24.53 5.14554 24.8871 5.85042 25.6012C6.55529 26.3154 6.90772 27.3133 6.90772 28.5951C6.90772 29.8768 6.55627 30.8757 5.85335 31.5917C5.15044 32.3078 4.16853 32.6658 2.90759 32.6658H0V24.53ZM1.0573 25.4434V31.7524H2.8371C3.78476 31.7524 4.51997 31.4762 5.04275 30.9236C5.56554 30.3711 5.82692 29.5987 5.82692 28.6064C5.82692 27.6103 5.56358 26.8341 5.03688 26.2778C4.51018 25.7215 3.77693 25.4434 2.8371 25.4434H1.0573ZM9.13002 32.6658V26.5879H10.1403V32.6658H9.13002ZM9.63517 25.3532C9.44329 25.3532 9.27785 25.2864 9.13883 25.153C8.99981 25.0196 8.93031 24.8608 8.93031 24.6766C8.93031 24.4886 8.99981 24.3289 9.13883 24.1973C9.27785 24.0658 9.44329 24 9.63517 24C9.83097 24 9.9974 24.0658 10.1345 24.1973C10.2715 24.3289 10.34 24.4886 10.34 24.6766C10.34 24.8608 10.2715 25.0196 10.1345 25.153C9.9974 25.2864 9.83097 25.3532 9.63517 25.3532ZM15.1292 31.7186C15.7166 31.7186 16.1768 31.5203 16.5096 31.1238C16.8425 30.7272 17.0089 30.1982 17.0089 29.5366C17.0089 28.8751 16.8415 28.3461 16.5067 27.9495C16.1719 27.553 15.7127 27.3547 15.1292 27.3547C14.5418 27.3547 14.0896 27.553 13.7724 27.9495C13.4552 28.3461 13.2966 28.8751 13.2966 29.5366C13.2966 30.1982 13.4552 30.7272 13.7724 31.1238C14.0896 31.5203 14.5418 31.7186 15.1292 31.7186ZM15.1762 35C14.4126 35 13.7988 34.8487 13.3348 34.5461C12.8707 34.2435 12.5995 33.8404 12.5212 33.3368H13.5903C13.6451 33.5848 13.8096 33.7831 14.0837 33.9316C14.3578 34.08 14.722 34.1543 15.1762 34.1543C15.744 34.1543 16.1875 34.0274 16.5067 33.7737C16.8258 33.52 16.9854 33.1695 16.9854 32.7222V31.5269H16.8914C16.6917 31.8614 16.4195 32.1199 16.0749 32.3022C15.7303 32.4845 15.3407 32.5756 14.906 32.5756C14.0876 32.5756 13.4405 32.2965 12.9647 31.7383C12.4889 31.1802 12.251 30.4463 12.251 29.5366C12.251 28.627 12.4899 27.8903 12.9676 27.3265C13.4454 26.7627 14.0915 26.4808 14.906 26.4808C15.3485 26.4808 15.7529 26.5776 16.119 26.7711C16.4851 26.9647 16.7583 27.225 16.9384 27.552H17.0324V26.5879H17.9957V32.7729C17.9957 33.4533 17.7422 33.9945 17.235 34.3967C16.7279 34.7989 16.0417 35 15.1762 35ZM20.4236 32.6658V26.5879H21.4339V32.6658H20.4236ZM20.9288 25.3532C20.7369 25.3532 20.5714 25.2864 20.4324 25.153C20.2934 25.0196 20.2239 24.8608 20.2239 24.6766C20.2239 24.4886 20.2934 24.3289 20.4324 24.1973C20.5714 24.0658 20.7369 24 20.9288 24C21.1245 24 21.291 24.0658 21.428 24.1973C21.5651 24.3289 21.6336 24.4886 21.6336 24.6766C21.6336 24.8608 21.5651 25.0196 21.428 25.153C21.291 25.2864 21.1245 25.3532 20.9288 25.3532ZM24.2847 25.0149H25.295V26.5879H26.7048V27.3998H25.295V30.8391C25.295 31.1961 25.3694 31.4555 25.5182 31.6171C25.667 31.7787 25.9059 31.8596 26.2349 31.8596C26.3249 31.8596 26.4023 31.8577 26.4669 31.8539C26.5315 31.8502 26.6108 31.8445 26.7048 31.837V32.6545C26.6069 32.6733 26.509 32.6874 26.4111 32.6968C26.3132 32.7062 26.2133 32.7109 26.1115 32.7109C25.4615 32.7109 24.9945 32.585 24.7106 32.3332C24.4267 32.0813 24.2847 31.666 24.2847 31.0871V27.3998H23.2627V26.5879H24.2847V25.0149ZM30.6834 31.9216C31.2042 31.9216 31.6359 31.7759 31.9786 31.4846C32.3212 31.1933 32.4925 30.8315 32.4925 30.3993V29.8411L30.7891 29.9482C29.8649 30.0084 29.4028 30.3391 29.4028 30.9405C29.4028 31.2488 29.5242 31.4893 29.767 31.6622C30.0098 31.8351 30.3153 31.9216 30.6834 31.9216ZM30.4954 32.7729C29.8806 32.7729 29.3705 32.6104 28.9652 32.2852C28.5599 31.9601 28.3573 31.5194 28.3573 30.9631C28.3573 29.8505 29.1268 29.251 30.6657 29.1645L32.4925 29.0574V28.5049C32.4925 27.7306 32.0148 27.3434 31.0593 27.3434C30.6794 27.3434 30.3642 27.4092 30.1136 27.5407C29.863 27.6723 29.7024 27.8584 29.6319 28.0989H28.6099C28.6764 27.6103 28.9388 27.2184 29.397 26.9234C29.8551 26.6283 30.421 26.4808 31.0945 26.4808C31.866 26.4808 32.4602 26.6603 32.8773 27.0192C33.2943 27.3782 33.5028 27.8734 33.5028 28.5049V32.6658H32.5395V31.7693H32.4455C32.2419 32.0926 31.9717 32.3407 31.6349 32.5136C31.2982 32.6865 30.9183 32.7729 30.4954 32.7729ZM35.9307 32.6658V24.1748H36.941V32.6658H35.9307ZM48.9395 32.6658L48.8103 32.3134C48.7241 32.0785 48.6252 31.8079 48.5136 31.5015C48.402 31.1952 48.3031 30.9246 48.217 30.6896L48.0878 30.3373H44.7161L43.8644 32.6658H42.7543L45.8792 24.53H46.9247L50.0497 32.6658H48.9395ZM46.355 25.8437L46.2199 26.2101C46.1298 26.4545 46.0192 26.757 45.888 27.1179L45.4944 28.2004C45.3633 28.5613 45.2526 28.8638 45.1626 29.1082L45.0275 29.4746H47.7764L46.4489 25.8437H46.355ZM51.6434 28.2512C51.6434 27.7475 51.8686 27.3265 52.3189 26.9882C52.7693 26.6499 53.3312 26.4808 54.0048 26.4808C54.6705 26.4808 55.2177 26.6274 55.6465 26.9206C56.0753 27.2137 56.323 27.6103 56.3896 28.1102H55.391C55.3244 27.8659 55.1717 27.6704 54.9328 27.5238C54.694 27.3772 54.3826 27.3039 53.9989 27.3039C53.6229 27.3039 53.3058 27.3876 53.0473 27.5548C52.7889 27.7221 52.6596 27.9411 52.6596 28.2117C52.6596 28.4184 52.7497 28.5904 52.9298 28.7276C53.11 28.8648 53.386 28.9766 53.758 29.063L54.7331 29.2886C55.3283 29.4276 55.7718 29.6278 56.0636 29.889C56.3553 30.1503 56.5012 30.4989 56.5012 30.9349C56.5012 31.4799 56.2584 31.9225 55.7728 32.2627C55.2872 32.6029 54.6842 32.7729 53.9636 32.7729C53.2588 32.7729 52.6812 32.6226 52.2308 32.3219C51.7805 32.0212 51.5279 31.619 51.4731 31.1153H52.5128C52.5989 31.3709 52.7673 31.5748 53.0179 31.7271C53.2686 31.8793 53.5955 31.9554 53.9989 31.9554C54.4257 31.9554 54.7762 31.8671 55.0503 31.6904C55.3244 31.5138 55.4615 31.2864 55.4615 31.0082C55.4615 30.7977 55.3783 30.622 55.2118 30.481C55.0454 30.3401 54.7938 30.2301 54.457 30.1512L53.3704 29.8975C52.7791 29.7584 52.3434 29.5592 52.0634 29.2998C51.7834 29.0405 51.6434 28.6909 51.6434 28.2512ZM58.324 28.2512C58.324 27.7475 58.5492 27.3265 58.9995 26.9882C59.4499 26.6499 60.0118 26.4808 60.6853 26.4808C61.3511 26.4808 61.8983 26.6274 62.3271 26.9206C62.7559 27.2137 63.0036 27.6103 63.0702 28.1102H62.0716C62.005 27.8659 61.8523 27.6704 61.6134 27.5238C61.3746 27.3772 61.0632 27.3039 60.6795 27.3039C60.3035 27.3039 59.9864 27.3876 59.7279 27.5548C59.4694 27.7221 59.3402 27.9411 59.3402 28.2117C59.3402 28.4184 59.4303 28.5904 59.6104 28.7276C59.7906 28.8648 60.0666 28.9766 60.4386 29.063L61.4137 29.2886C62.0089 29.4276 62.4524 29.6278 62.7442 29.889C63.0359 30.1503 63.1818 30.4989 63.1818 30.9349C63.1818 31.4799 62.939 31.9225 62.4534 32.2627C61.9678 32.6029 61.3648 32.7729 60.6442 32.7729C59.9394 32.7729 59.3618 32.6226 58.9114 32.3219C58.4611 32.0212 58.2085 31.619 58.1537 31.1153H59.1934C59.2795 31.3709 59.4479 31.5748 59.6985 31.7271C59.9492 31.8793 60.2761 31.9554 60.6795 31.9554C61.1063 31.9554 61.4568 31.8671 61.7309 31.6904C62.005 31.5138 62.1421 31.2864 62.1421 31.0082C62.1421 30.7977 62.0589 30.622 61.8924 30.481C61.726 30.3401 61.4744 30.2301 61.1376 30.1512L60.051 29.8975C59.4597 29.7584 59.024 29.5592 58.744 29.2998C58.464 29.0405 58.324 28.6909 58.324 28.2512ZM67.7947 27.3378C67.2896 27.3378 66.8745 27.5013 66.5495 27.8283C66.2244 28.1553 66.0424 28.5876 66.0032 29.1251H69.4923C69.4806 28.5876 69.32 28.1553 69.0106 27.8283C68.7013 27.5013 68.296 27.3378 67.7947 27.3378ZM69.4629 31.0928H70.4732C70.3205 31.6152 70.0112 32.0259 69.5452 32.3247C69.0792 32.6235 68.4996 32.7729 67.8065 32.7729C66.9293 32.7729 66.2342 32.4901 65.7213 31.9244C65.2083 31.3587 64.9518 30.5947 64.9518 29.6325C64.9518 28.6778 65.2102 27.9138 65.7271 27.3406C66.244 26.7674 66.9371 26.4808 67.8065 26.4808C68.6602 26.4808 69.3317 26.7542 69.8212 27.3011C70.3107 27.848 70.5555 28.5932 70.5555 29.5366V29.9088H66.0032V29.9539C66.0306 30.5553 66.2078 31.0326 66.5348 31.386C66.8618 31.7393 67.2935 31.9159 67.83 31.9159C68.2372 31.9159 68.5779 31.8455 68.852 31.7045C69.1262 31.5636 69.3298 31.3596 69.4629 31.0928ZM73.0656 25.0149H74.0759V26.5879H75.4856V27.3998H74.0759V30.8391C74.0759 31.1961 74.1503 31.4555 74.2991 31.6171C74.4479 31.7787 74.6868 31.8596 75.0157 31.8596C75.1058 31.8596 75.1831 31.8577 75.2478 31.8539C75.3124 31.8502 75.3917 31.8445 75.4856 31.837V32.6545C75.3877 32.6733 75.2899 32.6874 75.192 32.6968C75.0941 32.7062 74.9942 32.7109 74.8924 32.7109C74.2423 32.7109 73.7754 32.585 73.4915 32.3332C73.2076 32.0813 73.0656 31.666 73.0656 31.0871V27.3998H72.0435V26.5879H73.0656V25.0149ZM81.5397 24.53H84.741C85.5438 24.53 86.1967 24.7752 86.6999 25.2658C87.2031 25.7563 87.4547 26.3887 87.4547 27.163C87.4547 27.9223 87.1992 28.5453 86.6882 29.032C86.1771 29.5188 85.5242 29.7622 84.7292 29.7622H82.597V32.6658H81.5397V24.53ZM82.597 25.4321V28.8601H84.4649C85.068 28.8601 85.5359 28.7116 85.8688 28.4147C86.2016 28.1177 86.3681 27.7005 86.3681 27.163C86.3681 26.6029 86.2046 26.1744 85.8776 25.8775C85.5506 25.5806 85.0797 25.4321 84.4649 25.4321H82.597ZM89.6124 32.6658V24.1748H90.6227V32.6658H89.6124ZM95.036 31.9216C95.5568 31.9216 95.9885 31.7759 96.3312 31.4846C96.6738 31.1933 96.8452 30.8315 96.8452 30.3993V29.8411L95.1417 29.9482C94.2176 30.0084 93.7555 30.3391 93.7555 30.9405C93.7555 31.2488 93.8769 31.4893 94.1197 31.6622C94.3624 31.8351 94.6679 31.9216 95.036 31.9216ZM94.848 32.7729C94.2332 32.7729 93.7232 32.6104 93.3179 32.2852C92.9126 31.9601 92.7099 31.5194 92.7099 30.9631C92.7099 29.8505 93.4794 29.251 95.0184 29.1645L96.8452 29.0574V28.5049C96.8452 27.7306 96.3674 27.3434 95.4119 27.3434C95.0321 27.3434 94.7168 27.4092 94.4662 27.5407C94.2156 27.6723 94.055 27.8584 93.9846 28.0989H92.9625C93.0291 27.6103 93.2914 27.2184 93.7496 26.9234C94.2078 26.6283 94.7736 26.4808 95.4472 26.4808C96.2186 26.4808 96.8128 26.6603 97.2299 27.0192C97.6469 27.3782 97.8555 27.8734 97.8555 28.5049V32.6658H96.8922V31.7693H96.7982C96.5945 32.0926 96.3243 32.3407 95.9876 32.5136C95.6508 32.6865 95.2709 32.7729 94.848 32.7729ZM100.648 25.0149H101.658V26.5879H103.068V27.3998H101.658V30.8391C101.658 31.1961 101.732 31.4555 101.881 31.6171C102.03 31.7787 102.269 31.8596 102.598 31.8596C102.688 31.8596 102.765 31.8577 102.83 31.8539C102.894 31.8502 102.974 31.8445 103.068 31.837V32.6545C102.97 32.6733 102.872 32.6874 102.774 32.6968C102.676 32.7062 102.576 32.7109 102.474 32.7109C101.824 32.7109 101.357 32.585 101.073 32.3332C100.789 32.0813 100.648 31.666 100.648 31.0871V27.3998H99.6255V26.5879H100.648V25.0149ZM105.519 32.6658V27.3998H104.468V26.5879H105.519V25.9113C105.519 25.3062 105.675 24.8561 105.986 24.561C106.297 24.2659 106.754 24.1184 107.358 24.1184C107.483 24.1184 107.601 24.1231 107.713 24.1325C107.824 24.1419 107.933 24.156 108.039 24.1748V24.9641C107.976 24.9528 107.904 24.9453 107.822 24.9416C107.739 24.9378 107.653 24.9359 107.563 24.9359C107.199 24.9359 106.936 25.0196 106.773 25.1868C106.611 25.3541 106.529 25.605 106.529 25.9395V26.5879H107.98V27.3998H106.529V32.6658H105.519ZM112.288 32.7729C111.387 32.7729 110.675 32.492 110.153 31.93C109.63 31.3681 109.368 30.6004 109.368 29.6269C109.368 28.6496 109.63 27.8809 110.153 27.3209C110.675 26.7608 111.387 26.4808 112.288 26.4808C113.188 26.4808 113.9 26.7608 114.423 27.3209C114.946 27.8809 115.207 28.6496 115.207 29.6269C115.207 30.6004 114.946 31.3681 114.423 31.93C113.9 32.492 113.188 32.7729 112.288 32.7729ZM112.288 31.899C112.887 31.899 113.349 31.6998 113.674 31.3014C113.999 30.903 114.161 30.3448 114.161 29.6269C114.161 28.9052 113.999 28.3461 113.674 27.9495C113.349 27.553 112.887 27.3547 112.288 27.3547C111.689 27.3547 111.226 27.553 110.901 27.9495C110.576 28.3461 110.414 28.9052 110.414 29.6269C110.414 30.3448 110.576 30.903 110.901 31.3014C111.226 31.6998 111.689 31.899 112.288 31.899ZM117.294 32.6658V26.5879H118.258V27.49H118.352C118.445 27.1931 118.657 26.9506 118.986 26.7627C119.315 26.5747 119.689 26.4808 120.108 26.4808C120.19 26.4808 120.279 26.4836 120.375 26.4892C120.471 26.4949 120.55 26.5015 120.613 26.509V27.4787C120.574 27.4675 120.482 27.4552 120.337 27.4421C120.192 27.4289 120.069 27.4223 119.967 27.4223C119.485 27.4223 119.088 27.5614 118.774 27.8396C118.461 28.1177 118.305 28.471 118.305 28.8995V32.6658H117.294ZM122.377 32.6658V26.5879H123.34V27.5464H123.434C123.579 27.2081 123.804 26.9459 124.11 26.7599C124.415 26.5738 124.78 26.4808 125.202 26.4808C125.633 26.4808 125.996 26.5794 126.292 26.7768C126.588 26.9741 126.808 27.2306 126.953 27.5464H127.047C127.219 27.2231 127.476 26.9647 127.816 26.7711C128.157 26.5776 128.547 26.4808 128.985 26.4808C129.631 26.4808 130.129 26.6518 130.477 26.9938C130.826 27.3359 131 27.8264 131 28.4654V32.6658H129.99V28.6909C129.99 28.2436 129.879 27.9091 129.658 27.6873C129.437 27.4656 129.103 27.3547 128.656 27.3547C128.218 27.3547 127.863 27.4919 127.593 27.7663C127.323 28.0407 127.188 28.3714 127.188 28.7586V32.6658H126.178V28.5387C126.178 28.1779 126.057 27.8903 125.816 27.6761C125.575 27.4618 125.255 27.3547 124.856 27.3547C124.441 27.3547 124.092 27.505 123.81 27.8057C123.528 28.1064 123.387 28.471 123.387 28.8995V32.6658H122.377Z" fill="white"/>
<path d="M127.908 9V1.17969H130.464C131.313 1.17969 131.95 1.35514 132.376 1.70605C132.806 2.05697 133.021 2.57617 133.021 3.26367C133.021 3.62891 132.917 3.95296 132.709 4.23584C132.502 4.51514 132.219 4.73177 131.861 4.88574C132.283 5.00391 132.616 5.22949 132.86 5.5625C133.107 5.89193 133.23 6.28581 133.23 6.74414C133.23 7.44596 133.003 7.9974 132.548 8.39844C132.094 8.79948 131.451 9 130.62 9H127.908ZM128.939 5.34229V8.15674H130.642C131.121 8.15674 131.499 8.0332 131.775 7.78613C132.054 7.53548 132.194 7.19173 132.194 6.75488C132.194 5.81315 131.682 5.34229 130.658 5.34229H128.939ZM128.939 4.51514H130.497C130.948 4.51514 131.308 4.40234 131.576 4.17676C131.848 3.95117 131.984 3.64502 131.984 3.2583C131.984 2.82861 131.859 2.51709 131.608 2.32373C131.358 2.12679 130.976 2.02832 130.464 2.02832H128.939V4.51514ZM141.382 5.38525H137.992V8.15674H141.929V9H136.961V1.17969H141.876V2.02832H137.992V4.54199H141.382V5.38525ZM150.924 2.02832H148.41V9H147.384V2.02832H144.876V1.17969H150.924V2.02832ZM158.173 6.95898H154.896L154.161 9H153.097L156.083 1.17969H156.986L159.977 9H158.919L158.173 6.95898ZM155.208 6.11035H157.867L156.535 2.45264L155.208 6.11035Z" fill="#ECECEC"/>
</g>
<defs>
<clipPath id="clip0">
<rect width="167" height="35" fill="white"/>
</clipPath>
</defs>
</svg>
