<svg width="167" height="35" viewBox="0 0 167 35" fill="none" xmlns="http://www.w3.org/2000/svg">
<g clip-path="url(#clip0)">
<path fill-rule="evenodd" clip-rule="evenodd" d="M0 2.51111V1.18889H5.26395L10.7126 11.7667L16.2767 1.18889H21.2405V2.51111H19.1395V16.3944H21.2405V17.7167H14.5451V16.3944H16.6461V5.86389C16.6615 5.78518 16.673 5.60023 16.6807 5.30903C16.6884 5.01782 16.7 4.70695 16.7154 4.37639C16.7307 3.98287 16.7461 3.55787 16.7615 3.10139H16.5537L15.561 5.62778L10.828 14.175H9.4197L4.8022 5.62778L3.78635 2.86528H3.55548V4.32917C3.55548 4.69121 3.55932 5.03356 3.56702 5.35625C3.57472 5.67894 3.57856 5.84815 3.57856 5.86389V16.3944H5.541V17.7167H0V16.3944H2.10096V2.51111H0ZM30.9714 17.7167H24.1837V16.3944H26.2846V2.51111H24.1837V1.18889H30.9714V2.51111H28.8704V16.3944H30.9714V17.7167ZM38.6013 16.3944H40.5868V17.7167H33.9145V16.3944H36.0155V2.51111H33.9145V1.18889H36.2464C36.939 1.18889 37.6932 1.15741 38.509 1.09444C39.3247 1.03148 40.1251 1 40.9101 1C41.7566 1 42.5531 1.09051 43.2996 1.27153C44.0461 1.45255 44.6887 1.73194 45.2274 2.10972C45.7661 2.4875 46.1932 2.97152 46.5088 3.56181C46.8243 4.15209 46.9821 4.85648 46.9821 5.675C46.9821 6.80834 46.6396 7.77245 45.9547 8.56736C45.2697 9.36227 44.3732 9.925 43.265 10.2556L47.8594 16.3944H49.2908V17.7167H45.5507L40.9562 10.5861H38.6013V16.3944ZM40.4252 9.35833C41.6104 9.35833 42.5377 9.02778 43.2073 8.36667C43.8768 7.70555 44.2116 6.80834 44.2116 5.675C44.2116 4.51018 43.8576 3.66019 43.1496 3.125C42.4415 2.58981 41.5026 2.32222 40.3329 2.32222C39.9327 2.32222 39.5979 2.33796 39.3286 2.36944C39.0592 2.40093 38.8168 2.43241 38.6013 2.46389V9.35833H40.4252ZM56.1819 17.7167H50.5255V16.3944H52.3263L58.306 1.18889H60.7533L66.225 16.3944H67.9566V17.7167H61.3535V16.3944H63.4083L61.9076 12.2389H55.7664L54.1964 16.3944H56.1819V17.7167ZM56.2974 10.9167H61.5152L59.622 5.4625L59.0448 2.95972H58.9524L58.2829 5.50972L56.2974 10.9167ZM81.4738 1.18889H87.1533V2.51111H85.0524V18H83.5517L74.1551 5.0375L73.1392 3.21944H73.0469L73.2777 5.06111V16.3944H75.3787V17.7167H69.6992V16.3944H71.8001V2.51111H69.6992V1.18889H74.3167L82.3973 12.3097L83.5979 14.3403H83.7133L83.5748 12.3097V2.51111H81.4738V1.18889ZM89.6347 17.7167V16.3944H91.7357V2.51111H89.6347V1.18889H92.4745C92.767 1.18889 93.1094 1.18102 93.5019 1.16528C93.8944 1.14954 94.2984 1.12986 94.714 1.10625C95.1296 1.08264 95.5259 1.05903 95.903 1.03542C96.2801 1.01181 96.5995 1 96.8611 1C98.2926 1 99.5547 1.18495 100.647 1.55486C101.74 1.92477 102.656 2.45995 103.395 3.16042C104.134 3.86088 104.692 4.72268 105.069 5.74583C105.446 6.76899 105.634 7.93379 105.634 9.24028C105.634 10.4995 105.457 11.6565 105.103 12.7111C104.749 13.7657 104.195 14.6826 103.441 15.4618C102.687 16.241 101.721 16.847 100.544 17.2799C99.3661 17.7127 97.9616 17.9292 96.3301 17.9292C96.0839 17.9292 95.7991 17.9174 95.4759 17.8937C95.1527 17.8701 94.8102 17.8465 94.4485 17.8229C94.0868 17.7993 93.7212 17.7757 93.3518 17.7521C92.9824 17.7285 92.6361 17.7167 92.3129 17.7167H89.6347ZM96.5148 2.32222C96.0839 2.32222 95.6683 2.33009 95.2681 2.34583C94.8679 2.36157 94.5524 2.39306 94.3215 2.44028V16.5125C94.4139 16.5282 94.5678 16.54 94.7833 16.5479C94.9987 16.5558 95.2335 16.5637 95.4874 16.5715C95.7414 16.5794 95.9838 16.5873 96.2147 16.5951C96.4456 16.603 96.6072 16.6069 96.6995 16.6069C97.8539 16.6069 98.8159 16.4063 99.5855 16.0049C100.355 15.6035 100.975 15.0683 101.444 14.3993C101.913 13.7303 102.248 12.9512 102.448 12.0618C102.648 11.1724 102.748 10.2319 102.748 9.24028C102.748 8.46898 102.652 7.67408 102.46 6.85556C102.267 6.03703 101.933 5.28936 101.456 4.6125C100.978 3.93564 100.34 3.38472 99.5393 2.95972C98.7389 2.53472 97.7308 2.32222 96.5148 2.32222ZM112.225 17.7167H106.569V16.3944H108.37L114.349 1.18889H116.797L122.268 16.3944H124V17.7167H117.397V16.3944H119.452L117.951 12.2389H111.81L110.24 16.3944H112.225V17.7167ZM112.341 10.9167H117.559L115.665 5.4625L115.088 2.95972H114.996L114.326 5.50972L112.341 10.9167Z" fill="white"/>
<path d="M127.698 9V1.17969H130.438C131.386 1.17969 132.106 1.3623 132.597 1.72754C133.087 2.08919 133.333 2.62093 133.333 3.32275C133.333 3.70589 133.234 4.04427 133.037 4.33789C132.84 4.62793 132.566 4.84098 132.215 4.97705C132.616 5.07731 132.931 5.27962 133.161 5.58398C133.393 5.88835 133.51 6.26074 133.51 6.70117C133.51 7.45312 133.27 8.02246 132.79 8.40918C132.31 8.7959 131.626 8.99284 130.738 9H127.698ZM129.31 5.59473V7.70557H130.69C131.069 7.70557 131.365 7.61605 131.576 7.43701C131.791 7.25439 131.898 7.00374 131.898 6.68506C131.898 5.96891 131.528 5.60547 130.787 5.59473H129.31ZM129.31 4.45605H130.502C131.315 4.44173 131.721 4.11768 131.721 3.48389C131.721 3.12939 131.617 2.87516 131.41 2.72119C131.206 2.56364 130.882 2.48486 130.438 2.48486H129.31V4.45605ZM141.629 5.61084H138.535V7.70557H142.166V9H136.924V1.17969H142.155V2.48486H138.535V4.34863H141.629V5.61084ZM151.305 2.48486H148.91V9H147.298V2.48486H144.935V1.17969H151.305V2.48486ZM158.2 7.38867H155.374L154.837 9H153.124L156.035 1.17969H157.528L160.455 9H158.742L158.2 7.38867ZM155.809 6.0835H157.765L156.782 3.15625L155.809 6.0835Z" fill="#ECECEC" fill-opacity="0.27"/>
</g>
<defs>
<clipPath id="clip0">
<rect width="167" height="35" fill="white"/>
</clipPath>
</defs>
</svg>
