<svg xmlns="http://www.w3.org/2000/svg" width="32" height="32" viewBox="0 0 32 32">
  <path fill="#383838" fill-rule="evenodd" d="M26.5745828,7.96592781 L11.6908974,0.294515008 C9.65255302,-0.77956879 5.63242971,1.29516283 4.47796329,3.12113837 C3.96258831,3.93687309 4.00062947,4.52667642 4.00062947,4.86011543 L4.18388861,22.1847199 C4.19645873,22.5522306 4.65956847,23.0487504 5.05618888,23.2922138 C5.88184738,23.7986573 18.3861411,31.6050336 18.7407508,31.8260031 C18.9316182,31.9447576 19.1562264,32 19.3785191,32 C19.5677325,32 19.7579383,31.9579893 19.9296197,31.8726448 C20.3057309,31.6877317 20.5396014,31.3291525 20.5396014,30.9398095 L20.5396014,12.7429047 C20.5396014,12.3644779 20.3186319,12.0141685 19.9587294,11.8249551 L6.43063242,4.27328924 C6.58345863,3.97590663 7.18583208,3.34673897 8.29167198,2.76752101 C9.45738534,2.15720853 10.3303472,2.38777102 10.5304768,2.4655073 C10.5304768,2.4655073 23.5134275,9.41347653 23.9107095,9.61989115 C24.3063375,9.82663657 24.3139457,9.85740029 24.3139457,10.2106869 L24.3139457,27.4780642 C24.3139457,28.3391175 25.1888923,28.6920733 25.8302993,28.6920733 C26.4710447,28.6920733 27.1554547,28.0632364 27.1554547,27.4780642 L27.1554547,8.88420826 C27.1554547,8.50578144 26.9331621,8.15514121 26.5745828,7.96592781"/>
</svg>
