<svg xmlns="http://www.w3.org/2000/svg" width="20" height="20" viewBox="0 0 20 20">
  <path fill="#595959" fill-rule="evenodd" d="M209.889285,26.1291509 L205.443964,27.9071458 L205.443964,29.4115859 L209.889285,27.633591 L209.889285,26.1291509 Z M209.889285,30.744471 L205.443964,32.5226881 L205.443964,34.026906 L209.889285,32.2486889 L209.889285,30.744471 Z M211.22217,34.8824591 L204.111079,37.726451 L204.111079,25.27382 L211.22217,22.4291615 L211.22217,34.8824591 Z M201.888863,37.726451 L194.777773,34.8824591 L194.777773,22.4291615 L201.888863,25.27382 L201.888863,37.726451 Z M212.511722,20.1909457 C212.206612,19.9845019 211.818613,19.942502 211.476169,20.0793905 L202.999971,23.4700474 L194.523551,20.0793905 C194.180886,19.942502 193.793331,19.9845019 193.487776,20.1909457 C193.182666,20.3976118 193,20.7422775 193,21.1111653 L193,35.3333467 C193,35.7877899 193.276444,36.1962331 193.697998,36.3651215 L202.568195,39.9126669 C202.568195,39.9126669 202.749972,39.9713334 202.784194,39.9782223 C202.855527,39.9922222 202.927527,40 202.999971,40 C203.071971,40 203.143971,39.9922222 203.215748,39.9782223 C203.249526,39.9713334 203.432192,39.9122225 203.432192,39.9122225 L212.3015,36.3651215 C212.723499,36.1962331 212.999943,35.7877899 212.999943,35.3333467 L212.999943,21.1111653 C212.999943,20.7422775 212.816832,20.3976118 212.511722,20.1909457 L212.511722,20.1909457 Z M200.555978,27.9071458 L196.110658,26.1291509 L196.110658,27.633591 L200.555978,29.4115859 L200.555978,27.9071458 Z M200.555978,32.5226881 L196.110658,30.744471 L196.110658,32.2486889 L200.555978,34.026906 L200.555978,32.5226881 Z" transform="translate(-193 -20)"/>
</svg>
