<svg xmlns="http://www.w3.org/2000/svg" width="20" height="17" viewBox="0 0 20 17">
  <path fill="#595959" fill-rule="evenodd" d="M348.200235,26.1204 L344.900244,26.1204 L344.900244,21 L341.100255,21 L341.100255,26.1204 L337.800264,26.1204 L343.000249,31 L348.200235,26.1204 Z M352.339623,32.5424 L349.156032,30.4 L347.192838,30.4 L350.593228,33.0088 L347.048638,33.0088 C346.947038,33.0088 346.854839,33.0602 346.809239,33.1414 L345.992041,35.3766 L340.007658,35.3766 L339.19046,33.1414 C339.14526,33.0602 339.052661,33.0088 338.951061,33.0088 L335.406471,33.0088 L338.807261,30.4 L336.843667,30.4 L333.660476,32.5424 C333.186677,32.8252 332.903478,33.4774 333.030278,33.9914 L333.591676,37.0654 C333.719076,37.5794 334.282274,38 334.843272,38 L351.156827,38 C351.717825,38 352.281023,37.5794 352.408423,37.0654 L352.969421,33.9914 C353.097021,33.4774 352.813422,32.8252 352.339623,32.5424 L352.339623,32.5424 Z" transform="translate(-333 -21)"/>
</svg>
