<svg xmlns="http://www.w3.org/2000/svg" width="42" height="36" viewBox="0 0 42 36">
  <path fill="#FFFFFF" d="M158.285714,80.9600754 C160.306219,79.8028399 163.041977,79.1428571 166,79.1428571 C168.958023,79.1428571 171.693781,79.8028399 173.714286,80.9600754 L173.714286,56.8571429 C173.714286,55.2146144 170.391415,53.4285714 166,53.4285714 C161.608585,53.4285714 158.285714,55.2146144 158.285714,56.8571429 L158.285714,80.9600754 Z M154.857143,80.9600754 L154.857143,56.8571429 C154.857143,55.2146144 151.534272,53.4285714 147.142857,53.4285714 C142.751442,53.4285714 139.428571,55.2146144 139.428571,56.8571429 L139.428571,80.9600754 C141.449076,79.8028399 144.184834,79.1428571 147.142857,79.1428571 C150.10088,79.1428571 152.836638,79.8028399 154.857143,80.9600754 Z M166,50 C172.033834,50 177.142857,52.7460998 177.142857,56.8571429 L177.142857,86 L173.714286,86 C173.714286,84.3574716 170.391415,82.5714286 166,82.5714286 C161.608585,82.5714286 158.285714,84.3574716 158.285714,86 L154.857143,86 C154.857143,84.3574716 151.534272,82.5714286 147.142857,82.5714286 C142.751442,82.5714286 139.428571,84.3574716 139.428571,86 L136,86 L136,56.8571429 C136,52.7460998 141.109023,50 147.142857,50 C151.05429,50 154.577092,51.1539883 156.571429,53.0857201 C158.565765,51.1539883 162.088567,50 166,50 Z" transform="translate(-136 -50)"/>
</svg>
