<svg xmlns="http://www.w3.org/2000/svg" width="36" height="36" viewBox="0 0 36 36">
  <path fill="#FFFFFF" d="M175,83.8256076 L172.825608,86 L166.038632,79.2130247 L168.213025,77.0386323 L175,83.8256076 Z M154.375276,80.7505524 C145.883746,80.7505524 139,73.8668067 139,65.3752762 C139,56.8837456 145.883746,50 154.375276,50 C162.866807,50 169.750552,56.8837456 169.750552,65.3752762 C169.750552,73.8668067 162.866807,80.7505524 154.375276,80.7505524 Z M154.375276,77.6754971 C161.168501,77.6754971 166.675497,72.1685006 166.675497,65.3752762 C166.675497,58.5820517 161.168501,53.0750552 154.375276,53.0750552 C147.582052,53.0750552 142.075055,58.5820517 142.075055,65.3752762 C142.075055,72.1685006 147.582052,77.6754971 154.375276,77.6754971 Z M148.349061,64.1392825 L148.047527,65.6469524 L145.032187,65.0438845 L145.333721,63.5362146 C146.070462,59.8525117 148.852512,57.0704615 152.536215,56.333721 L154.043884,56.032187 L154.646952,59.0475267 L153.139283,59.3490607 C150.672875,59.8423422 148.842342,61.6728749 148.349061,64.1392825 Z" transform="translate(-139 -50)"/>
</svg>
