<svg xmlns="http://www.w3.org/2000/svg" width="36" height="36" viewBox="0 0 36 36">
  <path fill="#FFFFFF" d="M173.5,71.0509315 C174.450164,72.5556774 175,74.3385366 175,76.25 C175,81.6354271 170.635427,86 165.25,86 C164.35107,86 163.461894,85.8716425 162.591516,85.6253091 L161.5,85.3163894 L161.5,67.1836106 L162.591516,66.8746909 C163.461894,66.6283575 164.35107,66.5 165.25,66.5 C167.183075,66.5 168.98462,67.0623396 170.5,68.0323812 L170.5,63.5 C170.5,57.7014271 165.798573,53 160,53 L154,53 C148.201427,53 143.5,57.7014271 143.5,63.5 L143.5,68.0323812 C145.01538,67.0623396 146.816925,66.5 148.75,66.5 C149.64893,66.5 150.538106,66.6283575 151.408484,66.8746909 L152.5,67.1836106 L152.5,85.3163894 L151.408484,85.6253091 C150.538106,85.8716425 149.64893,86 148.75,86 C143.364573,86 139,81.6354271 139,76.25 C139,74.3385366 139.549836,72.5556774 140.5,71.0509315 L140.5,63.5 C140.5,56.0445729 146.544573,50 154,50 L160,50 C167.455427,50 173.5,56.0445729 173.5,63.5 L173.5,71.0509315 Z M148.75,69.5 C145.021427,69.5 142,72.5214271 142,76.25 C142,79.9785729 145.021427,83 148.75,83 C149.000412,83 149.250482,82.9853775 149.5,82.9564653 L149.5,69.5435347 C149.250482,69.5146225 149.000412,69.5 148.75,69.5 Z M165.25,83 C168.978573,83 172,79.9785729 172,76.25 C172,72.5214271 168.978573,69.5 165.25,69.5 C164.999588,69.5 164.749518,69.5146225 164.5,69.5435347 L164.5,82.9564653 C164.749518,82.9853775 164.999588,83 165.25,83 Z" transform="translate(-139 -50)"/>
</svg>
