<svg xmlns="http://www.w3.org/2000/svg" width="32" height="32" viewBox="0 0 32 32">
  <path fill="#383838" fill-rule="evenodd" d="M21.4151111,16.9255111 C20.9927111,17.5836444 20.7687111,17.3024 20.8956444,16.9255111 C21.2309333,15.9338667 21.2170667,12.9319111 18.4206222,12.4910222 L18.4206222,21.7585778 C18.4206222,23.4858667 17.4261333,24.5710222 15.3102222,25.2494222 C13.2547556,25.9089778 10.9546667,25.2241778 10.4170667,23.7475556 C9.87946667,22.2709333 11.0883556,20.4753778 13.1164444,19.7365333 C14.2485333,19.3255111 15.3962667,19.3308444 16.2830222,19.6718222 L16.2830222,6.60017778 L18.4206222,6.60017778 C18.4206222,8.84444444 24.4309333,12.2339556 21.4151111,16.9255111 M25.3333333,0 L7.55555556,0 C5.6,0 4,1.6 4,3.55555556 L4,28.4444444 C4,30.4 5.6,32 7.55555556,32 L25.3333333,32 C27.2888889,32 28.8888889,30.4 28.8888889,28.4444444 L28.8888889,3.55555556 C28.8888889,1.6 27.2888889,0 25.3333333,0"/>
</svg>
