<svg xmlns="http://www.w3.org/2000/svg" width="32" height="32" viewBox="0 0 32 32">
  <path fill="#383838" fill-rule="evenodd" d="M29.0144084,28.193171 L9.8227822,28.193171 L9.8227822,25.4437387 L12.7754139,18.5720779 L17.2045215,24.0699825 L21.3593898,19.8107945 L26.7014549,17.8831199 L29.0144084,23.0383054 L29.0144084,28.193171 Z M30.7811234,13.7605714 L7.62918835,13.7605714 C6.95623024,13.7605714 6.41063177,14.3356098 6.41063177,15.0437678 L6.41063177,30.1176456 C6.41063177,30.8258036 6.95623024,31.399882 7.62918835,31.399882 L30.7811234,31.399882 C31.4544015,31.399882 32,30.8258036 32,30.1176456 L32,15.0437678 C32,14.3356098 31.4544015,13.7605714 30.7811234,13.7605714 L30.7811234,13.7605714 Z M27.3996929,10.8744995 L24.1270621,1.85820481 C23.8851428,1.19260668 23.1760247,0.839967669 22.5443465,1.07068702 L0.788567535,9.01018476 C0.156249308,9.24058411 -0.160549803,9.96762207 0.0810495191,10.6332202 L3.53191984,20.1400735 L3.53191984,15.0437678 C3.53191984,12.7452143 5.36999469,10.8744995 7.62918835,10.8744995 L13.3776522,10.8744995 L20.233953,6.06203302 L24.2013019,10.8744995 L27.3996929,10.8744995 Z"/>
</svg>
