<svg xmlns="http://www.w3.org/2000/svg" width="32" height="32" viewBox="0 0 32 32">
  <path fill="#383838" fill-rule="evenodd" d="M19.7777778,21.3333333 L23.3333333,21.3333333 L23.3333333,19.5555556 L19.7777778,19.5555556 L19.7777778,21.3333333 Z M23.3333333,23.1111111 L9.11111111,23.1111111 L9.11111111,24.8888889 L23.3333333,24.8888889 L23.3333333,23.1111111 Z M14.4444444,17.7777778 L23.3333333,17.7777778 L23.3333333,16 L14.4444444,16 L14.4444444,17.7777778 Z M12.6666667,16 L9.11111111,16 L9.11111111,17.7777778 L12.6666667,17.7777778 L12.6666667,16 Z M14.4444444,7.11111111 L9.11111111,7.11111111 L9.11111111,14.2222222 L14.4444444,14.2222222 L14.4444444,7.11111111 Z M16.2222222,10.6666667 L23.3333333,10.6666667 L23.3333333,7.11111111 L16.2222222,7.11111111 L16.2222222,10.6666667 Z M23.3333333,12.4444444 L16.2222222,12.4444444 L16.2222222,14.2222222 L23.3333333,14.2222222 L23.3333333,12.4444444 Z M18,19.5555556 L9.11111111,19.5555556 L9.11111111,21.3333333 L18,21.3333333 L18,19.5555556 Z M26.8888889,28.4444444 L5.55555556,28.4444444 L5.55555556,3.55555556 L26.8888889,3.55555556 L26.8888889,28.4444444 Z M26.8888889,0 L5.55555556,0 C3.6,0 2,1.6 2,3.55555556 L2,28.4444444 C2,30.4 3.6,32 5.55555556,32 L26.8888889,32 C28.8444444,32 30.4444444,30.4 30.4444444,28.4444444 L30.4444444,3.55555556 C30.4444444,1.6 28.8444444,0 26.8888889,0 L26.8888889,0 Z"/>
</svg>
