<svg xmlns="http://www.w3.org/2000/svg" width="32" height="32" viewBox="0 0 32 32">
  <path fill="#383838" fill-rule="evenodd" d="M11.5950933,23.6401067 C11.5950933,23.90848 11.81184,24.1248 12.0797867,24.1248 C12.34816,24.1248 12.5649067,23.90848 12.5649067,23.6401067 C12.5649067,22.1800533 11.3800533,20.99648 9.92170667,20.99648 C8.45994667,20.99648 7.2768,22.1800533 7.2768,23.6401067 C7.2768,23.90848 7.49312,24.1248 7.76149333,24.1248 C8.02986667,24.1248 8.24661333,23.90848 8.24661333,23.6401067 C8.24832,22.7168 8.99669333,21.96672 9.92170667,21.96672 C10.8433067,21.96672 11.5933867,22.7168 11.5950933,23.6401067 Z M17.6733867,23.6401067 C17.6733867,23.90848 17.8901333,24.1248 18.1585067,24.1248 C18.42688,24.1248 18.6432,23.9067733 18.6432,23.6401067 C18.6414933,22.1800533 17.4583467,20.99648 16,20.99648 C14.53824,20.99648 13.3550933,22.1800533 13.3550933,23.6401067 C13.3550933,23.90848 13.57184,24.1248 13.8402133,24.1248 C14.10816,24.1248 14.3249067,23.90848 14.3249067,23.6401067 C14.3266133,22.7168 15.0749867,21.96672 16,21.9650133 C16.9216,21.96672 17.67168,22.7168 17.6733867,23.6401067 Z M23.7533867,23.6401067 C23.7533867,23.90848 23.97184,24.1248 24.2385067,24.1248 C24.5051733,24.1248 24.7232,23.9067733 24.7232,23.6401067 C24.7214933,22.1800533 23.5383467,20.99648 22.08,20.99648 C20.6165333,20.99648 19.4333867,22.1800533 19.43168,23.6401067 C19.43168,23.90848 19.6484267,24.1248 19.9168,24.1248 C20.1851733,24.1248 20.4014933,23.9067733 20.4014933,23.6401067 C20.4032,22.7168 21.1515733,21.96672 22.08,21.96672 C23.0016,21.96672 23.75168,22.7168 23.7533867,23.6401067 Z M7.04682667,24.6901333 C5.58506667,24.69312 4.40661333,25.8715733 4.4032,27.33504 C4.4032,27.6034133 4.61994667,27.82016 4.88832,27.82016 C5.15669333,27.82016 5.37344,27.6017067 5.37344,27.33504 C5.37344,26.4066133 6.12010667,25.6599467 7.04682667,25.6599467 C7.97354667,25.6599467 8.72021333,26.4066133 8.72149333,27.33504 C8.72149333,27.6034133 8.93824,27.82016 9.20661333,27.82016 C9.47498667,27.82016 9.69173333,27.6017067 9.69173333,27.33504 C9.69173333,25.8698667 8.50688,24.6914133 7.04682667,24.6901333 Z M13.01504,24.6901333 C11.5549867,24.69312 10.37312,25.8698667 10.3701333,27.33504 C10.3701333,27.6034133 10.5864533,27.82016 10.8548267,27.82016 C11.1232,27.82016 11.3399467,27.6017067 11.3399467,27.33504 C11.3399467,26.40832 12.08832,25.6599467 13.01504,25.6599467 C13.94176,25.6599467 14.69184,26.4066133 14.69184,27.33504 C14.69184,27.6034133 14.90816,27.82016 15.1765333,27.82016 C15.4449067,27.82016 15.6616533,27.6017067 15.6616533,27.33504 C15.65824,25.8698667 14.4750933,24.6914133 13.01504,24.6901333 Z M18.9815467,24.6901333 C17.5232,24.6914133 16.3383467,25.8698667 16.3383467,27.33504 C16.3383467,27.6034133 16.5550933,27.82016 16.8234667,27.82016 C17.09184,27.82016 17.30816,27.6017067 17.30816,27.33504 C17.3098667,26.4066133 18.05824,25.6599467 18.9815467,25.6599467 C19.91168,25.6599467 20.6600533,26.40832 20.6600533,27.33504 C20.6600533,27.6034133 20.8768,27.82016 21.1451733,27.82016 C21.4135467,27.82016 21.6298667,27.6017067 21.6298667,27.33504 C21.62688,25.8698667 20.4433067,24.6914133 18.9815467,24.6901333 Z M24.9501867,24.6901333 C23.49184,24.6914133 22.30656,25.8698667 22.30656,27.33504 C22.30656,27.6034133 22.5250133,27.82016 22.79168,27.82016 C23.0600533,27.82016 23.2768,27.6017067 23.2768,27.33504 C23.2785067,26.4066133 24.0264533,25.6599467 24.9501867,25.6599467 C25.8798933,25.6599467 26.6282667,26.40832 26.6282667,27.33504 C26.6282667,27.6034133 26.84672,27.82016 27.1133867,27.82016 C27.38176,27.82016 27.5985067,27.6017067 27.5985067,27.33504 C27.5950933,25.8698667 26.4098133,24.6914133 24.9501867,24.6901333 Z M31.8583467,2.14165333 C31.7666133,2.05162667 31.6433067,2 31.51488,2 L0.48512,2 C0.356693333,2 0.23168,2.05162667 0.141653333,2.14165333 C0.0516266667,2.23168 0,2.35669333 0,2.48512 L0,29.10144 C0,29.2298667 0.0516266667,29.35488 0.141653333,29.4449067 C0.23168,29.5349333 0.356693333,29.58656 0.48512,29.58656 L31.51488,29.58656 C31.6433067,29.58656 31.76832,29.5349333 31.8583467,29.4449067 C31.9483733,29.35488 32,29.2298667 32,29.10144 L32,2.48512 C32,2.35669333 31.9483733,2.23338667 31.8583467,2.14165333 Z M29.2782933,2.96981333 L31.0301867,2.96981333 L31.0301867,18.9015467 L29.2782933,17.15008 L29.2782933,2.96981333 Z M28.30848,2.96981333 L28.30848,12.8565333 C26.94016,12.5834667 25.5232,11.0781867 24.4731733,9.09845333 C23.3984,7.10336 22.6948267,4.69312 22.5834667,2.96981333 L28.30848,2.96981333 Z M21.61152,2.96981333 C21.72672,4.89664 22.4682667,7.40501333 23.6181333,9.55669333 C24.4765867,11.1383467 25.55648,12.5617067 26.8565333,13.3134933 C25.4882133,13.9701333 24.5034667,15.2949333 24.3332267,16.8667733 L7.66506667,16.8667733 C7.49482667,15.2932267 6.51008,13.9701333 5.14346667,13.3134933 C6.44352,12.5617067 7.52341333,11.1383467 8.38314667,9.55669333 C9.53514667,7.40501333 10.2766933,4.89664 10.3914667,2.96981333 L21.61152,2.96981333 Z M28.30848,13.8766933 L28.30848,16.8667733 L25.3166933,16.8667733 C25.53344,15.3166933 26.7549867,14.09344 28.30848,13.8766933 Z M3.69152,2.96981333 L9.41824,2.96981333 C9.30517333,4.69312 8.60330667,7.10336 7.52682667,9.09845333 C6.47509333,11.0781867 5.05984,12.5834667 3.69152,12.8565333 L3.69152,2.96981333 Z M3.69152,13.8766933 C5.2416,14.09344 6.46656,15.3166933 6.68330667,16.8667733 L3.69152,16.8667733 L3.69152,13.8766933 Z M0.969813333,2.96981333 L2.72341333,2.96981333 L2.72341333,17.15008 L0.969813333,18.9015467 L0.969813333,2.96981333 Z M0.969813333,28.6167467 L0.969813333,20.27328 L3.40650667,17.83488 L28.5917867,17.83488 L31.02848,20.2715733 L31.02848,28.61504 L0.969813333,28.61504 L0.969813333,28.6167467 Z"/>
</svg>
