<svg xmlns="http://www.w3.org/2000/svg" width="12" height="12" viewBox="0 0 12 12">
  <path fill="#595959" fill-rule="evenodd" d="M11.4460556,13.6987693 C11.4460556,11.9021364 12.9024402,10.4457518 14.6984656,10.4457518 C16.4954023,10.4457518 18.0962405,12.0465901 18.0962405,13.843223 C18.0962405,15.639856 16.639856,17.0962405 14.843223,17.0962405 C13.0468939,17.0962405 11.4460556,15.4954023 11.4460556,13.6987693 M21.7302147,19.1523129 L18.8602804,16.2823786 C19.2930338,15.5713506 19.5422962,14.7365269 19.5422962,13.843223 C19.5422962,11.2485253 17.2937708,9 14.6984656,9 C12.1037679,9 10,11.1037679 10,13.6987693 C10,16.2937708 12.2485253,18.5419924 14.843223,18.5419924 C15.7059957,18.5419924 16.5140856,18.3083754 17.2088606,17.9025077 L20.0944403,20.7880874 C20.3768161,21.0704631 20.8346324,21.0704631 21.1167044,20.7880874 L21.8325931,20.0725025 C22.1149688,19.7901267 22.0125905,19.4346887 21.7302147,19.1523129" transform="translate(-10 -9)"/>
</svg>
