<svg xmlns="http://www.w3.org/2000/svg" width="32" height="32" viewBox="0 0 32 32">
  <path fill="#383838" fill-rule="evenodd" d="M11.0852957,20.7451596 L12.591856,10.6980638 L20.2783883,15.7216117 L11.0852957,20.7451596 Z M32,7.34903192 L32,5.33961277 C32,4.59981162 31.4148571,4 30.6938776,4 L1.30612245,4 C0.584816327,4 0,4.59981162 0,5.33961277 L0,7.34903192 L3.26530612,7.34903192 L3.26530612,10.6980638 L0,10.6980638 L0,14.0470958 L3.26530612,14.0470958 L3.26530612,17.3961277 L0,17.3961277 L0,20.7451596 L3.26530612,20.7451596 L3.26530612,24.0941915 L0,24.0941915 L0,26.1036107 C0,26.8434118 0.584816327,27.4432234 1.30612245,27.4432234 L30.6938776,27.4432234 C31.4148571,27.4432234 32,26.8434118 32,26.1036107 L32,24.0941915 L28.7346939,24.0941915 L28.7346939,20.7451596 L32,20.7451596 L32,17.3961277 L28.7346939,17.3961277 L28.7346939,14.0470958 L32,14.0470958 L32,10.6980638 L28.7346939,10.6980638 L28.7346939,7.34903192 L32,7.34903192 Z"/>
</svg>
