<svg xmlns="http://www.w3.org/2000/svg" width="20" height="18" viewBox="0 0 20 18">
  <path fill="#595959" fill-rule="evenodd" d="M363.145641,54.97866 L360.853992,54.97866 L360.853992,48.728707 L363.145641,48.728707 L363.145641,54.97866 Z M363.145641,58.6248826 L360.853992,58.6248826 L360.853992,56.541565 L363.145641,56.541565 L363.145641,58.6248826 Z M371.90745,59.6465416 L362.628978,43.3631223 C362.501271,43.138749 362.260648,43 361.999816,43 C361.738985,43 361.49857,43.138749 361.370863,43.3631223 L352.093224,59.6465416 C351.966975,59.867165 351.969058,60.1367463 352.098849,60.3552863 C352.228223,60.5738263 352.465513,60.7082003 352.721761,60.7082003 L371.278497,60.7082003 C371.534328,60.7082003 371.771618,60.5738263 371.901409,60.3552863 C372.030783,60.1367463 372.032866,59.867165 371.90745,59.6465416 L371.90745,59.6465416 Z" transform="translate(-352 -43)"/>
</svg>
